<svg xmlns="http://www.w3.org/2000/svg" xmlns:xlink="http://www.w3.org/1999/xlink" viewBox="0 0 345.07 608.04"><defs><style>.cls-1{fill:none;}.cls-2{clip-path:url(#clip-path);}.cls-3{fill:#f9fbfc;opacity:0.89;}.cls-4{font-size:16.28px;font-family:MaisonNeue-Bold, Maison Neue;font-weight:700;letter-spacing:0.1em;}.cls-10,.cls-13,.cls-24,.cls-4{fill:#231f20;}.cls-5{letter-spacing:0.09em;}.cls-6{letter-spacing:0.1em;}.cls-7{letter-spacing:0.08em;}.cls-8{letter-spacing:0.09em;}.cls-9{letter-spacing:0.07em;}.cls-10{font-size:9.53px;font-family:MaisonNeue-LightItalic, Maison Neue;font-style:italic;}.cls-11{letter-spacing:-0.03em;}.cls-12{letter-spacing:0em;}.cls-13{font-size:11.6px;}.cls-13,.cls-24{font-family:MaisonNeue-Light, Maison Neue;}.cls-14{letter-spacing:-0.01em;}.cls-15{letter-spacing:-0.09em;}.cls-16{letter-spacing:-0.02em;}.cls-17{letter-spacing:-0.02em;}.cls-18{letter-spacing:0em;}.cls-19{letter-spacing:-0.02em;}.cls-20{letter-spacing:0em;}.cls-21{letter-spacing:-0.02em;}.cls-22{letter-spacing:-0.01em;}.cls-23{letter-spacing:-0.25em;}.cls-24{font-size:15.76px;letter-spacing:0.1em;}.cls-25{letter-spacing:0.01em;}.cls-26{letter-spacing:0.06em;}</style><clipPath id="clip-path"><rect class="cls-1" y="27.09" width="282.66" height="417.49"/></clipPath></defs><title>Asset 7</title><g id="Layer_2" data-name="Layer 2"><g id="Layer_1-2" data-name="Layer 1"><g class="cls-2"><image width="3265" height="4898" transform="translate(0 27.09) scale(0.09)" xlink:href="Downloads/10_MODEL2_Yeap.jpg"/></g><rect class="cls-3" x="143.88" y="323.94" width="139.11" height="120.64"/><text class="cls-4" transform="translate(0 13.84) scale(0.93 1)">AB<tspan class="cls-5" x="24.07" y="0">S</tspan><tspan class="cls-6" x="35.27" y="0">TR</tspan><tspan class="cls-7" x="58.08" y="0">A</tspan><tspan class="cls-8" x="69.63" y="0">C</tspan><tspan class="cls-9" x="81.78" y="0">T</tspan><tspan x="92.11" y="0" xml:space="preserve"> MODELS</tspan></text><text class="cls-10" transform="translate(162.13 13.39) scale(1.01 1)">an architectural <tspan class="cls-11" x="69.64" y="0">e</tspan><tspan class="cls-12" x="74.84" y="0">xploration </tspan></text><text class="cls-13" transform="translate(162.13 347.63)">Alongside drawings are model<tspan class="cls-14" x="160.94" y="0">s</tspan><tspan class="cls-15" x="166.81" y="0">,</tspan><tspan x="169.31" y="0"> </tspan><tspan x="0" y="16.06">another medium which allows </tspan><tspan class="cls-16" x="0" y="32.12">e</tspan><tspan x="6.59" y="32.12">xploring the co</tspan><tspan class="cls-17" x="86.32" y="32.12">nv</tspan><tspan x="98.98" y="32.12">entions of </tspan><tspan x="0" y="48.17">archi</tspan><tspan class="cls-16" x="26.58" y="48.17">t</tspan><tspan class="cls-18" x="30.45" y="48.17">ectural represen</tspan><tspan class="cls-14" x="118.72" y="48.17">t</tspan><tspan x="122.71" y="48.17">ation</tspan><tspan class="cls-15" x="149.7" y="48.17">.</tspan><tspan x="152.2" y="48.17"> </tspan><tspan x="0" y="64.23">Th</tspan><tspan class="cls-19" x="13.37" y="64.23">r</tspan><tspan class="cls-20" x="17.14" y="64.23">ough these p</tspan><tspan class="cls-21" x="87.43" y="64.23">r</tspan><tspan x="91.2" y="64.23">ojec</tspan><tspan class="cls-22" x="114.18" y="64.23">ts</tspan><tspan class="cls-15" x="124.03" y="64.23">,</tspan><tspan x="126.54" y="64.23" xml:space="preserve"> I grappled</tspan><tspan x="0" y="80.29">with the conceptual possibilities </tspan><tspan x="0" y="96.35">and creati</tspan><tspan class="cls-21" x="53.59" y="96.35">v</tspan><tspan x="59.62" y="96.35">e frictions inherent </tspan><tspan class="cls-21" x="164.45" y="96.35">t</tspan><tspan x="168.32" y="96.35">o</tspan><tspan x="0" y="112.41">translation bet</tspan><tspan class="cls-14" x="77.75" y="112.41">w</tspan><tspan x="86.69" y="112.41">een forms of </tspan><tspan x="0" y="128.47">represen</tspan><tspan class="cls-14" x="48.2" y="128.47">t</tspan><tspan x="52.19" y="128.47">ation</tspan><tspan class="cls-15" x="79.18" y="128.47">.</tspan><tspan class="cls-23"><tspan x="0" y="192.7">​</tspan><tspan x="0" y="256.93">​</tspan></tspan></text><text class="cls-24" transform="translate(288.24 115.15) rotate(-90) scale(1.01 1)">M<tspan class="cls-25" x="15.06" y="0">A</tspan><tspan class="cls-26" x="25.07" y="0">Y</tspan><tspan x="34.9" y="0" xml:space="preserve"> 2018</tspan></text></g></g></svg>