<svg xmlns="http://www.w3.org/2000/svg" viewBox="0 0 326.6 490.94"><defs><style>.cls-1{font-size:16.64px;font-family:MaisonNeue-Bold, Maison Neue;font-weight:700;}.cls-1,.cls-11,.cls-5,.cls-9{fill:#231f20;}.cls-2{letter-spacing:0.02em;}.cls-3{letter-spacing:0.01em;}.cls-4{letter-spacing:-0.01em;}.cls-5{font-size:14.38px;letter-spacing:0.1em;}.cls-11,.cls-5{font-family:MaisonNeue-Light, Maison Neue;}.cls-6{letter-spacing:0.02em;}.cls-7{letter-spacing:0.06em;}.cls-8{letter-spacing:0.1em;}.cls-9{font-size:7.57px;font-family:MaisonNeue-LightItalic, Maison Neue;font-style:italic;}.cls-10{letter-spacing:-0.03em;}.cls-11{font-size:9px;}.cls-12{letter-spacing:-0.01em;}.cls-13{letter-spacing:-0.09em;}.cls-14{letter-spacing:-0.02em;}.cls-15{letter-spacing:0em;}.cls-16{letter-spacing:-0.02em;}.cls-17{letter-spacing:-0.02em;}.cls-18{letter-spacing:-0.01em;}.cls-19{letter-spacing:-0.25em;}</style></defs><title>a1_toptext_3</title><g id="Layer_2" data-name="Layer 2"><g id="Layer_1-2" data-name="Layer 1"><text class="cls-1" transform="translate(0 14.14)"><tspan class="cls-2">AB</tspan><tspan class="cls-3" x="21.94" y="0">S</tspan><tspan class="cls-2" x="32.06" y="0">TR</tspan><tspan x="52.7" y="0">A</tspan><tspan class="cls-3" x="63.18" y="0">C</tspan><tspan class="cls-4" x="74.26" y="0">T</tspan><tspan class="cls-2" x="83.49" y="0" xml:space="preserve"> MODELS</tspan></text><text class="cls-5" transform="translate(263.14 100.94) rotate(-90) scale(1.01 1)">M<tspan class="cls-6" x="13.75" y="0">A</tspan><tspan class="cls-7" x="22.88" y="0">Y</tspan><tspan class="cls-8" x="31.86" y="0" xml:space="preserve"> 2018</tspan></text><text class="cls-9" transform="translate(157.51 14.34) scale(1.1 1)">an architecture <tspan class="cls-10" x="53.7" y="0">e</tspan><tspan x="57.83" y="0">xploration</tspan></text><text class="cls-11" transform="translate(182.38 280.24)">Alongside drawings are model<tspan class="cls-12" x="124.89" y="0">s</tspan><tspan class="cls-13" x="129.45" y="0">,</tspan><tspan x="131.39" y="0"> </tspan><tspan x="0" y="13">another medium which allows </tspan><tspan class="cls-14" x="0" y="26">e</tspan><tspan class="cls-15" x="5.11" y="26">xploring the co</tspan><tspan class="cls-16" x="66.99" y="26">nv</tspan><tspan x="76.81" y="26">entions of </tspan><tspan x="0" y="39">archi</tspan><tspan class="cls-17" x="20.63" y="39">t</tspan><tspan x="23.63" y="39">ectural represen</tspan><tspan class="cls-12" x="92.13" y="39">t</tspan><tspan x="95.23" y="39">ation</tspan><tspan class="cls-13" x="116.17" y="39">.</tspan><tspan x="118.11" y="39"> </tspan><tspan x="0" y="52">Th</tspan><tspan class="cls-17" x="10.38" y="52">r</tspan><tspan x="13.3" y="52">ough these p</tspan><tspan class="cls-14" x="67.85" y="52">r</tspan><tspan x="70.78" y="52">ojec</tspan><tspan class="cls-12" x="88.6" y="52">ts</tspan><tspan class="cls-13" x="96.25" y="52">,</tspan><tspan x="98.2" y="52" xml:space="preserve"> I grappled </tspan><tspan x="0" y="65">with the conceptual possibilities </tspan><tspan x="0" y="78">and creati</tspan><tspan class="cls-17" x="41.59" y="78">v</tspan><tspan x="46.27" y="78">e frictions inherent </tspan><tspan class="cls-14" x="127.62" y="78">t</tspan><tspan x="130.62" y="78">o </tspan><tspan x="0" y="91">translation bet</tspan><tspan class="cls-18" x="60.33" y="91">w</tspan><tspan x="67.27" y="91">een forms of </tspan><tspan x="0" y="104">represen</tspan><tspan class="cls-12" x="37.4" y="104">t</tspan><tspan class="cls-15" x="40.5" y="104">ation</tspan><tspan class="cls-13" x="61.44" y="104">.</tspan><tspan class="cls-19"><tspan x="0" y="156">​</tspan><tspan x="0" y="208">​</tspan></tspan></text></g></g></svg>