<svg width="24" height="24" viewBox="0 0 24 24" fill="none" xmlns="http://www.w3.org/2000/svg">
<g opacity="0.9">
<path d="M20.2878 6.88097C20.1609 6.53518 19.9311 6.23661 19.6293 6.02548C19.3275 5.81436 18.9682 5.70083 18.5999 5.7002H5.39986C5.03154 5.70083 4.67226 5.81436 4.37044 6.02548C4.06863 6.23661 3.8388 6.53518 3.71191 6.88097L11.9999 11.6094L20.2878 6.88097Z" fill="white"/>
<path d="M12.2973 12.8209C12.2067 12.8726 12.1043 12.8997 12 12.8997C11.8957 12.8997 11.7932 12.8726 11.7026 12.8209L3.59998 8.19824V16.4997C3.6005 16.9769 3.79031 17.4345 4.12776 17.7719C4.46521 18.1094 4.92275 18.2992 5.39998 18.2997H18.6C19.0772 18.2992 19.5347 18.1094 19.8722 17.7719C20.2096 17.4345 20.3995 16.9769 20.4 16.4997V8.19824L12.2973 12.8209Z" fill="white"/>
</g>
</svg>
