<svg width="24" height="24" viewBox="0 0 24 24" fill="none" xmlns="http://www.w3.org/2000/svg">
<g clip-path="url(#clip0)">
<g clip-path="url(#clip1)">
<path d="M22.4299 9.85054V20.5981H2.5702V9.85054H0.817871V21.2991C0.817871 21.6862 1.21011 22 1.69404 22H23.3061C23.79 22 24.1822 21.6862 24.1822 21.2991V9.85054H22.4299Z" fill="#B0B0B0"/>
<path d="M23.8656 9.31129L20.7698 7.25524L19.6507 8.33375L21.8899 9.82113L12.5001 15.4246L3.11076 9.82133L5.31958 8.35731L4.20162 7.27786L1.13504 9.31055C0.927958 9.4477 0.811455 9.65332 0.818144 9.86824C0.824882 10.0832 0.954813 10.2837 1.17005 10.4121L11.976 16.8607C12.1314 16.9537 12.3157 17 12.5 17C12.6842 17 12.8685 16.9537 13.0239 16.861L23.83 10.4125C24.0452 10.2839 24.1749 10.0835 24.1819 9.86875C24.1886 9.65406 24.0724 9.44844 23.8656 9.31129Z" fill="#B0B0B0"/>
<path d="M13.059 2.16102C12.7363 1.94676 12.2684 1.94582 11.9445 2.15868L8.70264 4.28483L9.81362 5.36893L12.497 3.60914L15.1824 5.38995L16.3007 4.3105L13.059 2.16102Z" fill="#B0B0B0"/>
<path d="M20.1811 4.10293H4.81904C4.33511 4.10293 3.94287 4.41672 3.94287 4.80386V11.7197H5.6952V5.50479H19.3049V11.7197H21.0573V4.80386C21.0573 4.41672 20.665 4.10293 20.1811 4.10293Z" fill="#B0B0B0"/>
<path d="M16.2725 10.64L13.0892 8.32695C12.7553 8.08418 12.2451 8.08418 11.911 8.32695L8.72761 10.64C8.36927 10.9003 8.3427 11.3436 8.66804 11.6302C8.84124 11.7826 9.07869 11.8599 9.31696 11.8599C9.52697 11.8599 9.73781 11.7999 9.90573 11.6779L12.5 9.79289L15.0947 11.6779C15.4524 11.938 16.007 11.9167 16.3321 11.6303C16.6574 11.3436 16.6309 10.9003 16.2725 10.64Z" fill="#B0B0B0"/>
</g>
</g>
<defs>
<clipPath id="clip0">
<rect width="24" height="24" fill="white"/>
</clipPath>
<clipPath id="clip1">
<rect width="25" height="25" fill="white" transform="translate(0 2)"/>
</clipPath>
</defs>
</svg>
