<svg width="24" height="24" viewBox="0 0 24 24" fill="none" xmlns="http://www.w3.org/2000/svg">
<path d="M20.2868 6.88072C20.16 6.53494 19.9301 6.23636 19.6283 6.02524C19.3265 5.81411 18.9672 5.70058 18.5989 5.69995H5.39889C5.03056 5.70058 4.67128 5.81411 4.36947 6.02524C4.06766 6.23636 3.83782 6.53494 3.71094 6.88072L11.9989 11.6091L20.2868 6.88072Z" fill="#D6D6D6"/>
<path d="M12.297 12.8212C12.2064 12.8728 12.1039 12.9 11.9996 12.9C11.8953 12.9 11.7928 12.8728 11.7022 12.8212L3.59961 8.19849V16.5C3.60013 16.9772 3.78994 17.4347 4.1274 17.7722C4.46485 18.1096 4.92238 18.2994 5.39961 18.3H18.5996C19.0768 18.2994 19.5344 18.1096 19.8718 17.7722C20.2093 17.4347 20.3991 16.9772 20.3996 16.5V8.19849L12.297 12.8212Z" fill="#D6D6D6"/>
</svg>
