<?xml version="1.0" encoding="utf-8"?>
<!-- Generator: Adobe Illustrator 23.0.0, SVG Export Plug-In . SVG Version: 6.00 Build 0)  -->
<svg version="1.1" id="Layer_1" xmlns="http://www.w3.org/2000/svg" xmlns:xlink="http://www.w3.org/1999/xlink" x="0px" y="0px"
	 viewBox="0 0 1366 768" style="enable-background:new 0 0 1366 768;" xml:space="preserve">
<style type="text/css">
	.st0{fill:none;stroke:#2B2B2B;stroke-miterlimit:10;}
	.st1{fill:none;stroke:#000000;stroke-miterlimit:10;}
	.st2{fill:#FAFAFA;}
	.st3{fill:none;stroke:#5C5C5C;stroke-width:3;stroke-miterlimit:10;}
	.st4{opacity:0.5;fill:none;stroke:#5C5C5C;stroke-width:3;stroke-miterlimit:10;}
	.st5{fill:none;stroke:#FAFBFB;stroke-miterlimit:10;}
	.st6{fill:#5C5C5C;}
	.st7{font-family:'MaisonNeue-Mono';}
	.st8{font-size:16.5px;}
	.st9{enable-background:new    ;}
	.st10{fill:none;stroke:#5C5C5C;stroke-width:0.25;stroke-miterlimit:10;}
	.st11{opacity:0.5;fill:#5C5C5C;stroke:#494949;stroke-width:0.25;stroke-miterlimit:10;enable-background:new    ;}
	.st12{fill:#494949;stroke:#494949;stroke-width:0.25;stroke-miterlimit:10;}
</style>
<path class="st0" d="M55.4,17.6"/>
<path class="st1" d="M334.3,247.4"/>
<path class="st1" d="M365.9,563.9"/>
<rect x="621" y="163" class="st2" width="62" height="106.2"/>
<rect x="622.2" y="497.6" class="st2" width="62" height="101.5"/>
<rect x="624.3" y="326.4" class="st2" width="62" height="96.2"/>
<line class="st3" x1="653.8" y1="174.8" x2="653.8" y2="256.4"/>
<line class="st4" x1="653.6" y1="340.1" x2="653.6" y2="404.5"/>
<line class="st3" x1="653.8" y1="516.2" x2="653.8" y2="579.4"/>
<rect class="st5" width="1366" height="768"/>
<text transform="matrix(1 0 0 1 669.7069 188.0731)" class="st6 st7 st8">PRODUCT</text>
<g class="st9">
	<path class="st10" d="M671.6,188.1v-11.5h4c1.2,0,2.1,0.3,2.8,0.9c0.7,0.6,1.1,1.5,1.1,2.6s-0.3,2-1,2.6s-1.6,0.9-2.8,0.9H673v4.5
		H671.6z M673,182.4h2.5c0.7,0,1.3-0.2,1.8-0.6c0.5-0.4,0.7-1,0.7-1.7c0-0.8-0.2-1.4-0.7-1.7c-0.5-0.4-1.1-0.6-1.8-0.6H673V182.4z"
		/>
	<path class="st10" d="M682.3,188.1v-11.5h3.7c1.2,0,2.2,0.3,2.9,0.9s1,1.4,1,2.6c0,0.9-0.3,1.7-0.8,2.2c-0.5,0.6-1.2,0.9-2.1,1.1
		l2.6,4.8h-1.5l-2.5-4.7h-1.8v4.7h-1.5V188.1z M683.7,182.1h2.2c0.8,0,1.4-0.2,1.9-0.5s0.7-0.9,0.7-1.7c0-1.5-0.9-2.2-2.6-2.2h-2.1
		v4.4H683.7z"/>
	<path class="st10" d="M696.5,188.3c-0.6,0-1.1-0.1-1.6-0.3s-1-0.6-1.4-1s-0.7-1.1-1-1.9c-0.2-0.8-0.4-1.7-0.4-2.8
		c0-1.9,0.4-3.3,1.3-4.4c0.9-1,1.9-1.6,3.1-1.6c1.2,0,2.2,0.5,3.1,1.6c0.9,1.1,1.3,2.5,1.3,4.4c0,1.1-0.1,2-0.4,2.8
		c-0.2,0.8-0.6,1.4-1,1.9s-0.9,0.8-1.4,1S697.1,188.3,696.5,188.3z M696.5,187c0.9,0,1.6-0.4,2.1-1.2s0.8-2,0.8-3.6
		c0-1.5-0.3-2.7-0.8-3.5s-1.2-1.2-2.1-1.2c-0.9,0-1.6,0.4-2.1,1.2s-0.8,1.9-0.8,3.5s0.3,2.8,0.8,3.6C695,186.6,695.7,187,696.5,187z
		"/>
	<path class="st10" d="M703.5,188.1v-11.5h3.2c0.7,0,1.3,0.1,1.9,0.3c0.6,0.2,1.1,0.6,1.6,1s0.9,1.1,1.1,1.8
		c0.3,0.8,0.4,1.6,0.4,2.6c0,1.1-0.1,2-0.4,2.8s-0.7,1.4-1.2,1.8c-0.5,0.4-1,0.7-1.6,0.9s-1.2,0.3-1.9,0.3L703.5,188.1L703.5,188.1z
		 M704.9,186.8h1.5c2.5,0,3.8-1.5,3.8-4.5c0-1.5-0.3-2.6-1-3.3s-1.5-1.2-2.7-1.2h-1.6V186.8z"/>
	<path class="st10" d="M713.8,184.3v-7.8h1.4v7.7c0,1.9,0.9,2.8,2.7,2.8c0.9,0,1.6-0.2,2.1-0.7s0.7-1.2,0.7-2.1v-7.7h1.4v7.8
		c0,1.3-0.4,2.3-1.1,3c-0.7,0.7-1.7,1-3.1,1c-1.3,0-2.3-0.3-3-1C714.2,186.6,713.8,185.6,713.8,184.3z"/>
	<path class="st10" d="M729,177.6c-0.9,0-1.6,0.4-2.1,1.2s-0.8,1.9-0.8,3.5s0.3,2.8,0.8,3.6s1.2,1.2,2.2,1.2c0.8,0,1.4-0.3,1.8-0.9
		c0.4-0.6,0.7-1.4,0.8-2.4l1.4,0.2c-0.1,1.3-0.5,2.4-1.2,3.2s-1.7,1.2-2.8,1.2c-1.3,0-2.3-0.5-3.2-1.5c-0.8-1-1.3-2.5-1.3-4.6
		c0-1.9,0.4-3.4,1.3-4.4c0.9-1,1.9-1.5,3.2-1.5c1.1,0,2,0.4,2.7,1.1c0.7,0.7,1.2,1.7,1.3,2.9l-1.4,0.2c-0.1-0.9-0.4-1.6-0.8-2.1
		C730.4,177.9,729.8,177.6,729,177.6z"/>
	<path class="st10" d="M738.7,188.1v-10.3h-3.9v-1.3h9.2v1.3h-3.9v10.3H738.7z"/>
</g>
<text transform="matrix(1 0 0 1 497.9453 356.3354)" class="st11 st7 st8">ARCHITECTURE</text>
<g>
	<g>
		<g>
			<path class="st12" d="M672.2,529.6v-11.5h4c1.2,0,2.1,0.3,2.8,0.9c0.7,0.6,1.1,1.5,1.1,2.6c0,1.1-0.3,2-1,2.6
				c-0.7,0.6-1.6,0.9-2.8,0.9h-2.6v4.5H672.2z M673.6,523.9h2.5c0.7,0,1.3-0.2,1.8-0.6c0.5-0.4,0.7-1,0.7-1.7c0-0.8-0.2-1.4-0.7-1.7
				c-0.5-0.4-1.1-0.6-1.8-0.6h-2.5V523.9z"/>
			<path class="st12" d="M683,529.6v-11.5h3.7c1.2,0,2.2,0.3,2.9,0.9c0.7,0.6,1,1.4,1,2.6c0,0.9-0.3,1.7-0.8,2.2
				c-0.5,0.6-1.2,0.9-2.1,1.1l2.6,4.8h-1.5l-2.5-4.7h-1.8v4.7H683z M684.4,523.7h2.2c0.8,0,1.4-0.2,1.9-0.5c0.5-0.3,0.7-0.9,0.7-1.7
				c0-1.5-0.9-2.2-2.6-2.2h-2.1V523.7z"/>
			<path class="st12" d="M697.1,529.8c-0.6,0-1.1-0.1-1.6-0.3c-0.5-0.2-1-0.6-1.4-1s-0.7-1.1-1-1.9c-0.2-0.8-0.4-1.7-0.4-2.8
				c0-1.9,0.4-3.3,1.3-4.4c0.9-1,1.9-1.6,3.1-1.6c1.2,0,2.2,0.5,3.1,1.6c0.9,1.1,1.3,2.5,1.3,4.4c0,1.1-0.1,2-0.4,2.8
				c-0.2,0.8-0.6,1.4-1,1.9c-0.4,0.5-0.9,0.8-1.4,1S697.7,529.8,697.1,529.8z M697.1,528.6c0.9,0,1.6-0.4,2.1-1.2
				c0.5-0.8,0.8-2,0.8-3.6c0-1.5-0.3-2.7-0.8-3.5s-1.2-1.2-2.1-1.2s-1.6,0.4-2.1,1.2c-0.5,0.8-0.8,1.9-0.8,3.5
				c0,1.6,0.3,2.8,0.8,3.6C695.6,528.2,696.3,528.6,697.1,528.6z"/>
			<path class="st12" d="M704.1,529.6v-11.5h3.2c0.7,0,1.3,0.1,1.9,0.3c0.6,0.2,1.1,0.6,1.6,1s0.9,1.1,1.1,1.8
				c0.3,0.8,0.4,1.6,0.4,2.6c0,1.1-0.1,2-0.4,2.8s-0.7,1.4-1.2,1.8c-0.5,0.4-1,0.7-1.6,0.9c-0.6,0.2-1.2,0.3-1.9,0.3H704.1z
				 M705.5,528.3h1.5c2.5,0,3.8-1.5,3.8-4.5c0-1.5-0.3-2.6-1-3.3s-1.5-1.2-2.7-1.2h-1.6V528.3z"/>
			<path class="st12" d="M714.4,525.8v-7.8h1.4v7.7c0,1.9,0.9,2.8,2.7,2.8c0.9,0,1.6-0.2,2.1-0.7c0.5-0.5,0.7-1.2,0.7-2.1v-7.7h1.4
				v7.8c0,1.3-0.4,2.3-1.1,3s-1.7,1-3.1,1c-1.3,0-2.3-0.3-3-1C714.8,528.1,714.4,527.1,714.4,525.8z"/>
			<path class="st12" d="M729.7,519.1c-0.9,0-1.6,0.4-2.1,1.2c-0.5,0.8-0.8,1.9-0.8,3.5c0,1.6,0.3,2.8,0.8,3.6
				c0.5,0.8,1.2,1.2,2.2,1.2c0.8,0,1.4-0.3,1.8-0.9c0.4-0.6,0.7-1.4,0.8-2.4l1.4,0.2c-0.1,1.3-0.5,2.4-1.2,3.2
				c-0.7,0.8-1.7,1.2-2.8,1.2c-1.3,0-2.3-0.5-3.2-1.5c-0.8-1-1.3-2.5-1.3-4.6c0-1.9,0.4-3.4,1.3-4.4s1.9-1.5,3.2-1.5
				c1.1,0,2,0.4,2.7,1.1s1.2,1.7,1.3,2.9l-1.4,0.2c-0.1-0.9-0.4-1.6-0.8-2.1C731,519.4,730.4,519.1,729.7,519.1z"/>
			<path class="st12" d="M739.3,529.6v-10.3h-3.9v-1.3h9.2v1.3h-3.9v10.3H739.3z"/>
			<path class="st12" d="M756.9,529.6v-11.5h3.2c0.7,0,1.3,0.1,1.9,0.3c0.6,0.2,1.1,0.6,1.6,1s0.9,1.1,1.1,1.8
				c0.3,0.8,0.4,1.6,0.4,2.6c0,1.1-0.1,2-0.4,2.8s-0.7,1.4-1.2,1.8c-0.5,0.4-1,0.7-1.6,0.9c-0.6,0.2-1.2,0.3-1.9,0.3H756.9z
				 M758.3,528.3h1.5c2.5,0,3.8-1.5,3.8-4.5c0-1.5-0.3-2.6-1-3.3s-1.5-1.2-2.7-1.2h-1.6V528.3z"/>
			<path class="st12" d="M768.2,529.6v-11.5h6.8v1.3h-5.4v3.7h5v1.2h-5v4.1h5.4v1.3H768.2z"/>
			<path class="st12" d="M777.9,525.6l1.5-0.3c0.2,1.1,0.5,1.9,0.9,2.5c0.4,0.5,1.2,0.8,2.2,0.8c0.8,0,1.4-0.2,1.8-0.6
				c0.4-0.4,0.6-0.9,0.6-1.4c0-0.6-0.2-1.1-0.5-1.4c-0.4-0.3-1.1-0.7-2.4-1.2c-1.2-0.5-2.1-0.9-2.7-1.4c-0.5-0.5-0.8-1.1-0.8-1.9
				c0-0.8,0.3-1.6,1-2.1c0.6-0.6,1.5-0.8,2.5-0.8c1,0,1.8,0.3,2.6,0.8c0.7,0.5,1.1,1.3,1.3,2.4l-1.4,0.3c-0.3-1.5-1.1-2.2-2.5-2.2
				c-0.7,0-1.2,0.2-1.5,0.5c-0.4,0.3-0.5,0.7-0.5,1.2c0,0.4,0.2,0.8,0.5,1.1s1.1,0.6,2.2,1c1.4,0.5,2.4,1,2.9,1.5s0.8,1.2,0.8,2.1
				c0,0.9-0.3,1.7-1,2.4c-0.7,0.6-1.6,1-2.8,1C779.7,529.8,778.2,528.4,777.9,525.6z"/>
			<path class="st12" d="M789.4,519.3v-1.2h6.9v1.2h-2.8v9.1h2.8v1.2h-6.9v-1.2h2.8v-9.1H789.4z"/>
			<path class="st12" d="M803.9,529.8c-1.3,0-2.4-0.5-3.2-1.5s-1.3-2.6-1.3-4.6c0-1.9,0.4-3.3,1.3-4.4c0.9-1,1.9-1.6,3.2-1.6
				c1,0,1.9,0.4,2.6,1.1c0.7,0.7,1.2,1.6,1.3,2.8l-1.4,0.2c-0.1-0.8-0.4-1.5-0.8-2c-0.4-0.5-1-0.8-1.7-0.8c-0.9,0-1.6,0.4-2.2,1.2
				c-0.6,0.8-0.8,1.9-0.8,3.4c0,1.6,0.3,2.8,0.8,3.6c0.6,0.8,1.3,1.2,2.2,1.2c0.8,0,1.5-0.3,2-0.9c0.5-0.6,0.7-1.4,0.7-2.5h-2.9
				v-1.3h4.3v1.1c0,1.5-0.4,2.7-1.1,3.5C806,529.4,805.1,529.8,803.9,529.8z"/>
			<path class="st12" d="M810.6,529.6v-11.5h1.4l4.6,9.2h0v-9.2h1.3v11.5h-1.4l-4.6-9.2h0v9.2H810.6z"/>
		</g>
	</g>
</g>
</svg>
