<?xml version="1.0" encoding="utf-8"?>
<!-- Generator: Adobe Illustrator 23.0.0, SVG Export Plug-In . SVG Version: 6.00 Build 0)  -->
<svg version="1.1" id="Layer_1" xmlns="http://www.w3.org/2000/svg" xmlns:xlink="http://www.w3.org/1999/xlink" x="0px" y="0px"
	 viewBox="0 0 1366 768" style="enable-background:new 0 0 1366 768;" xml:space="preserve">
<style type="text/css">
	.st0{fill:none;stroke:#2B2B2B;stroke-miterlimit:10;}
	.st1{fill:none;stroke:#000000;stroke-miterlimit:10;}
	.st2{fill:#FAFBFB;}
	.st3{enable-background:new    ;}
	.st4{fill:#595959;}
	.st5{fill:none;stroke:#5C5C5C;stroke-width:3;stroke-miterlimit:10;}
	.st6{fill:none;stroke:#FAFAFA;stroke-miterlimit:10;}
</style>
<path class="st0" d="M55.4,17.6"/>
<path class="st1" d="M334.3,247.4"/>
<path class="st1" d="M365.9,563.9"/>
<rect x="621" y="185.6" class="st2" width="62" height="151.3"/>
<rect x="622.8" y="425.4" class="st2" width="62" height="111.3"/>
<g>
	<g class="st3">
		<path class="st4" d="M673.9,209.8l-0.9,4h0c0.3-0.4,0.6-0.8,1-1.1c0.4-0.3,0.9-0.4,1.5-0.4c0.5,0,0.9,0.1,1.2,0.2
			c0.3,0.2,0.6,0.4,0.9,0.6c0.2,0.3,0.4,0.6,0.5,1c0.1,0.4,0.2,0.8,0.2,1.2c0,0.6-0.1,1.1-0.3,1.7s-0.4,1-0.7,1.5
			c-0.3,0.4-0.7,0.8-1.2,1.1c-0.5,0.3-1,0.4-1.6,0.4s-1.1-0.2-1.6-0.5c-0.4-0.3-0.7-0.8-0.8-1.4h0l-0.4,1.7h-0.8l2.1-10H673.9z
			 M675.7,218.9c0.4-0.2,0.7-0.6,1-0.9s0.5-0.8,0.6-1.3c0.1-0.5,0.2-0.9,0.2-1.4c0-0.7-0.2-1.2-0.5-1.6c-0.3-0.4-0.9-0.6-1.6-0.6
			c-0.5,0-0.9,0.1-1.3,0.4s-0.7,0.6-0.9,1c-0.2,0.4-0.4,0.8-0.6,1.3c-0.1,0.5-0.2,0.9-0.2,1.3c0,0.3,0,0.6,0.1,0.9
			c0.1,0.3,0.2,0.5,0.4,0.7c0.2,0.2,0.4,0.4,0.6,0.5s0.5,0.2,0.9,0.2C674.9,219.3,675.3,219.1,675.7,218.9z"/>
		<path class="st4" d="M683.9,219.8l0.3-1.3h0c-0.3,0.4-0.6,0.8-1.1,1.1c-0.5,0.3-1,0.4-1.5,0.4c-0.3,0-0.6,0-0.9-0.1
			c-0.3-0.1-0.5-0.2-0.7-0.3c-0.2-0.2-0.3-0.4-0.5-0.6c-0.1-0.2-0.2-0.5-0.2-0.9c0-0.2,0-0.5,0.1-0.9l1-4.6h0.9l-1,4.7
			c0,0.1-0.1,0.2-0.1,0.4c0,0.1,0,0.2,0,0.4c0,0.2,0,0.4,0.1,0.6c0.1,0.2,0.2,0.3,0.3,0.4c0.1,0.1,0.3,0.2,0.5,0.2
			c0.2,0,0.4,0.1,0.6,0.1c0.3,0,0.6-0.1,0.9-0.2c0.3-0.1,0.6-0.3,0.8-0.6c0.2-0.3,0.5-0.6,0.7-0.9s0.3-0.8,0.4-1.2l0.8-3.7h0.9
			l-1.6,7.2H683.9z"/>
		<path class="st4" d="M687.7,218.3c0.1,0.2,0.3,0.4,0.5,0.6c0.2,0.1,0.4,0.2,0.7,0.3c0.2,0.1,0.5,0.1,0.8,0.1c0.2,0,0.4,0,0.6-0.1
			c0.2-0.1,0.4-0.1,0.6-0.2c0.2-0.1,0.3-0.2,0.4-0.4c0.1-0.2,0.2-0.4,0.2-0.6c0-0.2-0.1-0.4-0.2-0.6c-0.1-0.2-0.3-0.3-0.5-0.4
			s-0.4-0.2-0.6-0.3c-0.2-0.1-0.5-0.2-0.7-0.3c-0.2-0.1-0.5-0.2-0.7-0.3s-0.4-0.2-0.6-0.4c-0.2-0.2-0.3-0.3-0.4-0.5
			c-0.1-0.2-0.2-0.5-0.2-0.8c0-0.4,0.1-0.7,0.3-0.9c0.2-0.2,0.4-0.5,0.6-0.6c0.3-0.2,0.6-0.3,0.9-0.3c0.3-0.1,0.6-0.1,0.9-0.1
			c0.4,0,0.7,0,1.1,0.1s0.6,0.2,0.8,0.4s0.4,0.4,0.5,0.7c0.1,0.3,0.2,0.7,0.2,1.1h-0.9c0-0.3,0-0.5-0.1-0.7
			c-0.1-0.2-0.2-0.4-0.4-0.5c-0.2-0.1-0.3-0.2-0.6-0.3c-0.2-0.1-0.4-0.1-0.7-0.1c-0.2,0-0.4,0-0.6,0.1c-0.2,0-0.4,0.1-0.6,0.2
			c-0.2,0.1-0.3,0.2-0.4,0.4c-0.1,0.2-0.2,0.4-0.2,0.6c0,0.2,0,0.3,0.1,0.4c0.1,0.1,0.2,0.2,0.3,0.4c0.1,0.1,0.3,0.2,0.5,0.3
			c0.2,0.1,0.4,0.2,0.6,0.3c0.3,0.1,0.5,0.2,0.8,0.3s0.5,0.2,0.8,0.4c0.2,0.2,0.4,0.4,0.6,0.6c0.2,0.2,0.2,0.5,0.2,0.8
			c0,0.4-0.1,0.8-0.3,1c-0.2,0.3-0.4,0.5-0.7,0.7c-0.3,0.2-0.6,0.3-0.9,0.4s-0.7,0.1-1,0.1c-0.4,0-0.7,0-1-0.1s-0.6-0.2-0.9-0.4
			c-0.3-0.2-0.5-0.5-0.6-0.8c-0.2-0.3-0.2-0.7-0.2-1.2h0.9C687.5,217.8,687.6,218.1,687.7,218.3z"/>
		<path class="st4" d="M695.7,212.6l-1.6,7.2h-0.9l1.5-7.2H695.7z M696.3,209.8l-0.3,1.4h-0.9l0.3-1.4H696.3z"/>
		<path class="st4" d="M698.2,212.6l-0.3,1.3h0c0.3-0.4,0.6-0.8,1.1-1.1c0.5-0.3,1-0.4,1.5-0.4c0.3,0,0.6,0,0.9,0.1
			c0.3,0.1,0.5,0.2,0.7,0.3c0.2,0.2,0.3,0.4,0.5,0.6c0.1,0.2,0.2,0.5,0.2,0.9c0,0.2,0,0.5-0.1,0.9l-1,4.6h-0.9l1-4.7
			c0-0.1,0.1-0.2,0.1-0.4c0-0.1,0-0.2,0-0.4c0-0.2,0-0.4-0.1-0.6c-0.1-0.2-0.2-0.3-0.3-0.4s-0.3-0.2-0.5-0.2c-0.2,0-0.4-0.1-0.6-0.1
			c-0.3,0-0.6,0.1-0.9,0.2c-0.3,0.1-0.6,0.3-0.8,0.6c-0.3,0.3-0.5,0.6-0.7,0.9c-0.2,0.4-0.3,0.8-0.4,1.2l-0.8,3.7h-0.9l1.5-7.2
			H698.2z"/>
		<path class="st4" d="M704.6,217c0,0.3,0,0.6,0.1,0.9c0.1,0.3,0.2,0.5,0.4,0.7c0.2,0.2,0.4,0.4,0.7,0.5c0.3,0.1,0.6,0.2,0.9,0.2
			c0.6,0,1.1-0.2,1.5-0.5c0.4-0.3,0.7-0.8,0.9-1.3h0.9c-0.2,0.8-0.6,1.4-1.2,1.9c-0.5,0.4-1.3,0.6-2.1,0.6c-1,0-1.7-0.3-2.2-0.8
			c-0.5-0.5-0.8-1.3-0.8-2.2c0-0.6,0.1-1.1,0.3-1.7c0.2-0.5,0.4-1,0.8-1.5c0.3-0.4,0.8-0.8,1.2-1s1-0.4,1.7-0.4
			c0.4,0,0.8,0.1,1.2,0.2c0.3,0.1,0.6,0.3,0.9,0.6c0.2,0.2,0.4,0.5,0.5,0.9c0.1,0.3,0.2,0.7,0.2,1.1c0,0.2,0,0.4,0,0.6
			c0,0.2,0,0.4-0.1,0.6h-5.7C704.7,216.6,704.6,216.8,704.6,217z M709.5,215.4c0-0.1,0-0.2,0-0.3c0-0.6-0.2-1.1-0.5-1.5
			c-0.4-0.4-0.8-0.5-1.5-0.5c-0.4,0-0.7,0.1-1,0.2c-0.3,0.1-0.6,0.3-0.8,0.6c-0.2,0.2-0.4,0.5-0.6,0.8c-0.2,0.3-0.3,0.6-0.4,1h4.7
			C709.5,215.6,709.5,215.5,709.5,215.4z"/>
		<path class="st4" d="M711.9,218.3c0.1,0.2,0.3,0.4,0.5,0.6c0.2,0.1,0.4,0.2,0.7,0.3c0.2,0.1,0.5,0.1,0.8,0.1c0.2,0,0.4,0,0.6-0.1
			c0.2-0.1,0.4-0.1,0.6-0.2c0.2-0.1,0.3-0.2,0.4-0.4c0.1-0.2,0.2-0.4,0.2-0.6c0-0.2-0.1-0.4-0.2-0.6c-0.1-0.2-0.3-0.3-0.5-0.4
			s-0.4-0.2-0.6-0.3c-0.2-0.1-0.5-0.2-0.7-0.3c-0.2-0.1-0.5-0.2-0.7-0.3s-0.4-0.2-0.6-0.4c-0.2-0.2-0.3-0.3-0.4-0.5
			c-0.1-0.2-0.2-0.5-0.2-0.8c0-0.4,0.1-0.7,0.3-0.9c0.2-0.2,0.4-0.5,0.6-0.6c0.3-0.2,0.6-0.3,0.9-0.3c0.3-0.1,0.6-0.1,0.9-0.1
			c0.4,0,0.7,0,1.1,0.1s0.6,0.2,0.8,0.4s0.4,0.4,0.5,0.7c0.1,0.3,0.2,0.7,0.2,1.1h-0.9c0-0.3,0-0.5-0.1-0.7
			c-0.1-0.2-0.2-0.4-0.4-0.5c-0.2-0.1-0.3-0.2-0.6-0.3c-0.2-0.1-0.4-0.1-0.7-0.1c-0.2,0-0.4,0-0.6,0.1c-0.2,0-0.4,0.1-0.6,0.2
			c-0.2,0.1-0.3,0.2-0.4,0.4c-0.1,0.2-0.2,0.4-0.2,0.6c0,0.2,0,0.3,0.1,0.4c0.1,0.1,0.2,0.2,0.3,0.4c0.1,0.1,0.3,0.2,0.5,0.3
			c0.2,0.1,0.4,0.2,0.6,0.3c0.3,0.1,0.5,0.2,0.8,0.3s0.5,0.2,0.8,0.4c0.2,0.2,0.4,0.4,0.6,0.6c0.2,0.2,0.2,0.5,0.2,0.8
			c0,0.4-0.1,0.8-0.3,1c-0.2,0.3-0.4,0.5-0.7,0.7c-0.3,0.2-0.6,0.3-0.9,0.4s-0.7,0.1-1,0.1c-0.4,0-0.7,0-1-0.1s-0.6-0.2-0.9-0.4
			c-0.3-0.2-0.5-0.5-0.6-0.8c-0.2-0.3-0.2-0.7-0.2-1.2h0.9C711.7,217.8,711.8,218.1,711.9,218.3z"/>
		<path class="st4" d="M718.7,218.3c0.1,0.2,0.3,0.4,0.5,0.6c0.2,0.1,0.4,0.2,0.7,0.3c0.2,0.1,0.5,0.1,0.8,0.1c0.2,0,0.4,0,0.6-0.1
			c0.2-0.1,0.4-0.1,0.6-0.2c0.2-0.1,0.3-0.2,0.4-0.4c0.1-0.2,0.2-0.4,0.2-0.6c0-0.2-0.1-0.4-0.2-0.6c-0.1-0.2-0.3-0.3-0.5-0.4
			s-0.4-0.2-0.6-0.3c-0.2-0.1-0.5-0.2-0.7-0.3c-0.2-0.1-0.5-0.2-0.7-0.3s-0.4-0.2-0.6-0.4c-0.2-0.2-0.3-0.3-0.4-0.5
			c-0.1-0.2-0.2-0.5-0.2-0.8c0-0.4,0.1-0.7,0.3-0.9c0.2-0.2,0.4-0.5,0.6-0.6c0.3-0.2,0.6-0.3,0.9-0.3c0.3-0.1,0.6-0.1,0.9-0.1
			c0.4,0,0.7,0,1.1,0.1s0.6,0.2,0.8,0.4s0.4,0.4,0.5,0.7c0.1,0.3,0.2,0.7,0.2,1.1h-0.9c0-0.3,0-0.5-0.1-0.7
			c-0.1-0.2-0.2-0.4-0.4-0.5c-0.2-0.1-0.3-0.2-0.6-0.3c-0.2-0.1-0.4-0.1-0.7-0.1c-0.2,0-0.4,0-0.6,0.1c-0.2,0-0.4,0.1-0.6,0.2
			c-0.2,0.1-0.3,0.2-0.4,0.4c-0.1,0.2-0.2,0.4-0.2,0.6c0,0.2,0,0.3,0.1,0.4c0.1,0.1,0.2,0.2,0.3,0.4c0.1,0.1,0.3,0.2,0.5,0.3
			c0.2,0.1,0.4,0.2,0.6,0.3c0.3,0.1,0.5,0.2,0.8,0.3s0.5,0.2,0.8,0.4c0.2,0.2,0.4,0.4,0.6,0.6c0.2,0.2,0.2,0.5,0.2,0.8
			c0,0.4-0.1,0.8-0.3,1c-0.2,0.3-0.4,0.5-0.7,0.7c-0.3,0.2-0.6,0.3-0.9,0.4s-0.7,0.1-1,0.1c-0.4,0-0.7,0-1-0.1s-0.6-0.2-0.9-0.4
			c-0.3-0.2-0.5-0.5-0.6-0.8c-0.2-0.3-0.2-0.7-0.2-1.2h0.9C718.5,217.8,718.5,218.1,718.7,218.3z"/>
		<path class="st4" d="M735.6,216.7c-0.2,0.4-0.4,0.8-0.8,1.3l1.2,1.8h-1l-0.8-1.2c-0.4,0.4-0.8,0.8-1.3,1c-0.5,0.2-1,0.3-1.6,0.3
			c-0.4,0-0.8-0.1-1.1-0.2c-0.3-0.1-0.6-0.3-0.9-0.5c-0.2-0.2-0.4-0.5-0.6-0.8c-0.1-0.3-0.2-0.7-0.2-1.1c0-0.4,0.1-0.8,0.3-1.1
			c0.2-0.3,0.4-0.6,0.7-0.8s0.6-0.5,0.9-0.7c0.4-0.2,0.7-0.4,1.1-0.5c-0.1-0.2-0.2-0.4-0.4-0.5c-0.1-0.2-0.2-0.4-0.3-0.5
			c-0.1-0.2-0.2-0.4-0.2-0.6c-0.1-0.2-0.1-0.4-0.1-0.7c0-0.3,0.1-0.6,0.2-0.9c0.1-0.3,0.3-0.5,0.5-0.7c0.2-0.2,0.5-0.3,0.8-0.4
			c0.3-0.1,0.6-0.2,0.9-0.2c0.3,0,0.6,0,0.8,0.1c0.3,0.1,0.5,0.2,0.7,0.4c0.2,0.2,0.4,0.3,0.5,0.6c0.1,0.2,0.2,0.5,0.2,0.8
			c0,0.4-0.1,0.7-0.2,1c-0.2,0.3-0.4,0.5-0.6,0.8c-0.2,0.2-0.5,0.4-0.8,0.6c-0.3,0.2-0.6,0.4-0.9,0.5l1.8,2.8
			c0.2-0.2,0.4-0.5,0.5-0.9c0.1-0.3,0.2-0.7,0.3-1h0.9C735.9,215.9,735.8,216.3,735.6,216.7z M731,215.3c-0.3,0.2-0.6,0.3-0.8,0.5
			c-0.2,0.2-0.4,0.4-0.6,0.7s-0.2,0.6-0.2,0.9c0,0.2,0,0.5,0.1,0.7c0.1,0.2,0.2,0.4,0.4,0.6s0.4,0.3,0.6,0.4
			c0.2,0.1,0.5,0.1,0.7,0.1c0.5,0,1-0.1,1.4-0.3c0.4-0.2,0.8-0.5,1.1-1l-2-3.1C731.6,215,731.3,215.1,731,215.3z M732.8,213.5
			c0.2-0.1,0.5-0.3,0.7-0.5s0.4-0.4,0.5-0.6s0.2-0.5,0.2-0.7c0-0.4-0.1-0.7-0.4-0.9c-0.3-0.2-0.6-0.3-1-0.3c-0.2,0-0.4,0-0.6,0.1
			c-0.2,0.1-0.3,0.2-0.5,0.3s-0.3,0.3-0.3,0.4c-0.1,0.2-0.1,0.4-0.1,0.6c0,0.2,0,0.3,0.1,0.5c0.1,0.2,0.1,0.3,0.2,0.5
			s0.2,0.3,0.3,0.5c0.1,0.2,0.2,0.3,0.3,0.4C732.4,213.8,732.6,213.7,732.8,213.5z"/>
		<path class="st4" d="M673.3,229.4l-0.3,1.3h0c0.3-0.5,0.7-0.8,1.1-1.1c0.4-0.3,0.9-0.4,1.6-0.4c0.5,0,0.9,0.1,1.2,0.2
			c0.3,0.1,0.6,0.3,0.9,0.6c0.2,0.3,0.4,0.6,0.5,0.9c0.1,0.4,0.2,0.8,0.2,1.2c0,0.6-0.1,1.1-0.3,1.7c-0.2,0.6-0.4,1.1-0.8,1.5
			c-0.3,0.4-0.8,0.8-1.3,1.1c-0.5,0.3-1,0.4-1.6,0.4c-0.3,0-0.6,0-0.8-0.1c-0.3-0.1-0.5-0.2-0.7-0.3c-0.2-0.1-0.4-0.3-0.5-0.5
			s-0.2-0.5-0.3-0.7h0l-0.9,4.1h-0.9l2.1-9.9H673.3z M674.3,230.3c-0.4,0.3-0.7,0.6-1,1c-0.3,0.4-0.5,0.8-0.6,1.3
			c-0.1,0.5-0.2,0.9-0.2,1.4c0,0.6,0.2,1.2,0.5,1.5c0.4,0.4,0.9,0.6,1.5,0.6c0.5,0,1-0.1,1.3-0.4c0.4-0.3,0.7-0.6,1-1
			s0.5-0.8,0.6-1.3c0.1-0.5,0.2-0.9,0.2-1.4c0-0.6-0.2-1.1-0.5-1.5c-0.3-0.4-0.8-0.6-1.5-0.6C675.1,229.9,674.7,230,674.3,230.3z"/>
		<path class="st4" d="M681.3,229.4l-0.4,1.7h0c0.3-0.5,0.6-0.9,1-1.3c0.4-0.3,0.9-0.5,1.6-0.5h0.2c0,0,0.1,0,0.1,0c0,0,0.1,0,0.1,0
			l-0.2,0.9c-0.1,0-0.2,0-0.3,0c-0.1,0-0.2,0-0.3,0c-0.4,0-0.7,0.1-1,0.2c-0.3,0.1-0.6,0.3-0.8,0.6c-0.2,0.2-0.4,0.5-0.6,0.8
			c-0.1,0.3-0.3,0.6-0.3,1l-0.8,3.8H679l1.5-7.2H681.3z"/>
		<path class="st4" d="M688.7,229.3c0.4,0.1,0.7,0.3,0.9,0.6s0.5,0.5,0.6,0.9c0.1,0.4,0.2,0.7,0.2,1.2c0,0.6-0.1,1.2-0.3,1.8
			c-0.2,0.6-0.4,1.1-0.8,1.5c-0.3,0.4-0.8,0.8-1.3,1.1c-0.5,0.3-1.1,0.4-1.8,0.4c-0.9,0-1.7-0.3-2.2-0.8c-0.5-0.5-0.7-1.3-0.7-2.2
			c0-0.6,0.1-1.2,0.3-1.7s0.4-1.1,0.8-1.5s0.8-0.8,1.3-1c0.5-0.3,1.1-0.4,1.7-0.4C687.9,229.1,688.3,229.2,688.7,229.3z
			 M687.8,235.7c0.4-0.2,0.7-0.6,0.9-0.9c0.2-0.4,0.4-0.8,0.6-1.3c0.1-0.5,0.2-0.9,0.2-1.3c0-0.7-0.2-1.2-0.5-1.6
			c-0.4-0.4-0.9-0.6-1.6-0.6c-0.5,0-0.9,0.1-1.3,0.4c-0.4,0.2-0.7,0.5-0.9,0.9s-0.4,0.8-0.6,1.2c-0.1,0.5-0.2,0.9-0.2,1.3
			c0,0.7,0.2,1.3,0.5,1.7c0.4,0.4,0.9,0.7,1.6,0.7C687,236.1,687.4,235.9,687.8,235.7z"/>
		<path class="st4" d="M696.4,236.6l0.3-1.3h0c-0.3,0.5-0.7,0.8-1.1,1.1c-0.4,0.3-0.9,0.4-1.6,0.4c-0.9,0-1.6-0.3-2.1-0.8
			c-0.5-0.5-0.7-1.2-0.7-2.1c0-0.6,0.1-1.1,0.3-1.7s0.4-1.1,0.8-1.5c0.3-0.4,0.8-0.8,1.3-1.1c0.5-0.3,1-0.4,1.6-0.4
			c0.6,0,1.1,0.1,1.5,0.4c0.4,0.2,0.7,0.6,0.9,1.2h0l0.9-4.1h0.9l-2.2,10H696.4z M695.5,235.7c0.4-0.3,0.7-0.6,1-1
			c0.3-0.4,0.5-0.8,0.6-1.3s0.2-0.9,0.2-1.4c0-0.6-0.2-1.2-0.5-1.5c-0.4-0.4-0.9-0.6-1.5-0.6c-0.5,0-1,0.1-1.3,0.4
			c-0.4,0.3-0.7,0.6-1,1s-0.5,0.8-0.6,1.3c-0.1,0.5-0.2,0.9-0.2,1.4c0,0.6,0.2,1.1,0.5,1.5c0.3,0.4,0.8,0.6,1.5,0.6
			C694.6,236.1,695.1,235.9,695.5,235.7z"/>
		<path class="st4" d="M704,236.6l0.3-1.3h0c-0.3,0.4-0.6,0.8-1.1,1.1c-0.5,0.3-1,0.4-1.5,0.4c-0.3,0-0.6,0-0.9-0.1
			c-0.3-0.1-0.5-0.2-0.7-0.3c-0.2-0.2-0.3-0.4-0.5-0.6c-0.1-0.2-0.2-0.5-0.2-0.9c0-0.2,0-0.5,0.1-0.9l1-4.6h0.9l-1,4.7
			c0,0.1-0.1,0.2-0.1,0.4c0,0.1,0,0.2,0,0.4c0,0.2,0,0.4,0.1,0.6c0.1,0.2,0.2,0.3,0.3,0.4c0.1,0.1,0.3,0.2,0.5,0.2
			c0.2,0,0.4,0.1,0.6,0.1c0.3,0,0.6-0.1,0.9-0.2c0.3-0.1,0.6-0.3,0.8-0.6c0.2-0.3,0.5-0.6,0.7-0.9s0.3-0.8,0.4-1.2l0.8-3.7h0.9
			l-1.6,7.2H704z"/>
		<path class="st4" d="M712.6,230.9c-0.1-0.2-0.2-0.4-0.4-0.5c-0.2-0.1-0.3-0.3-0.6-0.3c-0.2-0.1-0.5-0.1-0.7-0.1
			c-0.5,0-1,0.1-1.4,0.4c-0.4,0.2-0.7,0.5-1,0.9c-0.3,0.4-0.5,0.8-0.6,1.3c-0.1,0.5-0.2,0.9-0.2,1.4c0,0.3,0,0.6,0.1,0.9
			c0.1,0.3,0.2,0.5,0.4,0.7s0.4,0.4,0.6,0.5c0.3,0.1,0.6,0.2,0.9,0.2c0.6,0,1.1-0.2,1.5-0.5c0.4-0.3,0.7-0.8,0.9-1.3h0.9
			c-0.3,0.8-0.7,1.5-1.2,1.9c-0.6,0.4-1.3,0.6-2.2,0.6c-0.9,0-1.6-0.3-2.1-0.8c-0.5-0.5-0.7-1.3-0.7-2.2c0-0.6,0.1-1.1,0.3-1.7
			s0.4-1.1,0.8-1.5c0.3-0.4,0.7-0.8,1.2-1.1s1-0.4,1.7-0.4c0.4,0,0.8,0,1.1,0.1c0.3,0.1,0.6,0.2,0.9,0.5c0.2,0.2,0.4,0.5,0.6,0.8
			s0.2,0.7,0.2,1.1h-0.9C712.7,231.3,712.7,231.1,712.6,230.9z"/>
		<path class="st4" d="M715.9,229.4l0.5-2.2h0.9l-0.5,2.2h1.4l-0.1,0.7h-1.5l-1,4.6c0,0.2-0.1,0.3-0.1,0.4c0,0.1,0,0.2,0,0.3
			c0,0.1,0,0.2,0.1,0.4c0.1,0.1,0.2,0.2,0.4,0.2c0.3,0,0.7,0,1-0.1l-0.2,0.8c-0.2,0-0.3,0-0.5,0c-0.1,0-0.3,0-0.4,0
			c-0.2,0-0.3,0-0.5,0c-0.2,0-0.3-0.1-0.4-0.1c-0.1-0.1-0.2-0.2-0.3-0.3s-0.1-0.3-0.1-0.5c0-0.1,0-0.2,0-0.3c0-0.1,0-0.3,0.1-0.4
			l1-4.8h-1.3l0.2-0.7H715.9z"/>
		<path class="st4" d="M727.4,236.6l0.3-1.3h0c-0.3,0.5-0.7,0.8-1.1,1.1c-0.4,0.3-0.9,0.4-1.6,0.4c-0.9,0-1.6-0.3-2.1-0.8
			c-0.5-0.5-0.7-1.2-0.7-2.1c0-0.6,0.1-1.1,0.3-1.7s0.4-1.1,0.8-1.5c0.3-0.4,0.8-0.8,1.3-1.1c0.5-0.3,1-0.4,1.6-0.4
			c0.6,0,1.1,0.1,1.5,0.4c0.4,0.2,0.7,0.6,0.9,1.2h0l0.9-4.1h0.9l-2.2,10H727.4z M726.5,235.7c0.4-0.3,0.7-0.6,1-1
			c0.3-0.4,0.5-0.8,0.6-1.3s0.2-0.9,0.2-1.4c0-0.6-0.2-1.2-0.5-1.5c-0.4-0.4-0.9-0.6-1.5-0.6c-0.5,0-1,0.1-1.3,0.4
			c-0.4,0.3-0.7,0.6-1,1s-0.5,0.8-0.6,1.3c-0.1,0.5-0.2,0.9-0.2,1.4c0,0.6,0.2,1.1,0.5,1.5c0.3,0.4,0.8,0.6,1.5,0.6
			C725.6,236.1,726.1,235.9,726.5,235.7z"/>
		<path class="st4" d="M731.2,233.8c0,0.3,0,0.6,0.1,0.9c0.1,0.3,0.2,0.5,0.4,0.7c0.2,0.2,0.4,0.4,0.7,0.5c0.3,0.1,0.6,0.2,0.9,0.2
			c0.6,0,1.1-0.2,1.5-0.5c0.4-0.3,0.7-0.8,0.9-1.3h0.9c-0.2,0.8-0.6,1.4-1.2,1.9c-0.5,0.4-1.3,0.6-2.1,0.6c-1,0-1.7-0.3-2.2-0.8
			c-0.5-0.5-0.8-1.3-0.8-2.2c0-0.6,0.1-1.1,0.3-1.7c0.2-0.5,0.4-1,0.8-1.5c0.3-0.4,0.8-0.8,1.2-1s1-0.4,1.7-0.4
			c0.4,0,0.8,0.1,1.2,0.2c0.3,0.1,0.6,0.3,0.9,0.6c0.2,0.2,0.4,0.5,0.5,0.9c0.1,0.3,0.2,0.7,0.2,1.1c0,0.2,0,0.4,0,0.6
			c0,0.2,0,0.4-0.1,0.6h-5.7C731.2,233.4,731.2,233.6,731.2,233.8z M736.1,232.2c0-0.1,0-0.2,0-0.3c0-0.6-0.2-1.1-0.5-1.5
			c-0.4-0.4-0.8-0.5-1.5-0.5c-0.4,0-0.7,0.1-1,0.2c-0.3,0.1-0.6,0.3-0.8,0.6c-0.2,0.2-0.4,0.5-0.6,0.8c-0.2,0.3-0.3,0.6-0.4,1h4.7
			C736.1,232.4,736.1,232.3,736.1,232.2z"/>
		<path class="st4" d="M738.5,235.1c0.1,0.2,0.3,0.4,0.5,0.6c0.2,0.1,0.4,0.2,0.7,0.3c0.2,0.1,0.5,0.1,0.8,0.1c0.2,0,0.4,0,0.6-0.1
			c0.2-0.1,0.4-0.1,0.6-0.2c0.2-0.1,0.3-0.2,0.4-0.4c0.1-0.2,0.2-0.4,0.2-0.6c0-0.2-0.1-0.4-0.2-0.6c-0.1-0.2-0.3-0.3-0.5-0.4
			s-0.4-0.2-0.6-0.3c-0.2-0.1-0.5-0.2-0.7-0.3c-0.2-0.1-0.5-0.2-0.7-0.3s-0.4-0.2-0.6-0.4c-0.2-0.2-0.3-0.3-0.4-0.5
			c-0.1-0.2-0.2-0.5-0.2-0.8c0-0.4,0.1-0.7,0.3-0.9c0.2-0.2,0.4-0.5,0.6-0.6c0.3-0.2,0.6-0.3,0.9-0.3c0.3-0.1,0.6-0.1,0.9-0.1
			c0.4,0,0.7,0,1.1,0.1s0.6,0.2,0.8,0.4s0.4,0.4,0.5,0.7c0.1,0.3,0.2,0.7,0.2,1.1h-0.9c0-0.3,0-0.5-0.1-0.7
			c-0.1-0.2-0.2-0.4-0.4-0.5c-0.2-0.1-0.3-0.2-0.6-0.3c-0.2-0.1-0.4-0.1-0.7-0.1c-0.2,0-0.4,0-0.6,0.1c-0.2,0-0.4,0.1-0.6,0.2
			c-0.2,0.1-0.3,0.2-0.4,0.4c-0.1,0.2-0.2,0.4-0.2,0.6c0,0.2,0,0.3,0.1,0.4c0.1,0.1,0.2,0.2,0.3,0.4c0.1,0.1,0.3,0.2,0.5,0.3
			c0.2,0.1,0.4,0.2,0.6,0.3c0.3,0.1,0.5,0.2,0.8,0.3s0.5,0.2,0.8,0.4c0.2,0.2,0.4,0.4,0.6,0.6c0.2,0.2,0.2,0.5,0.2,0.8
			c0,0.4-0.1,0.8-0.3,1c-0.2,0.3-0.4,0.5-0.7,0.7c-0.3,0.2-0.6,0.3-0.9,0.4s-0.7,0.1-1,0.1c-0.4,0-0.7,0-1-0.1s-0.6-0.2-0.9-0.4
			c-0.3-0.2-0.5-0.5-0.6-0.8c-0.2-0.3-0.2-0.7-0.2-1.2h0.9C738.3,234.6,738.4,234.9,738.5,235.1z"/>
		<path class="st4" d="M746.5,229.4l-1.6,7.2h-0.9l1.5-7.2H746.5z M747.1,226.6l-0.3,1.4h-0.9l0.3-1.4H747.1z"/>
		<path class="st4" d="M752.5,237.5c-0.2,0.5-0.4,0.8-0.7,1.1s-0.6,0.5-1,0.7s-0.9,0.2-1.4,0.2c-0.4,0-0.7,0-1.1-0.1
			c-0.3-0.1-0.6-0.2-0.9-0.4c-0.3-0.2-0.5-0.4-0.6-0.7c-0.1-0.3-0.2-0.7-0.2-1.1h0.9c0,0.3,0.1,0.6,0.2,0.8c0.1,0.2,0.3,0.4,0.5,0.5
			c0.2,0.1,0.4,0.2,0.6,0.3c0.2,0.1,0.5,0.1,0.8,0.1c0.4,0,0.7-0.1,1-0.2c0.3-0.1,0.5-0.3,0.7-0.5c0.2-0.2,0.4-0.4,0.5-0.7
			c0.1-0.3,0.2-0.5,0.3-0.8c0.1-0.3,0.2-0.5,0.2-0.8c0.1-0.3,0.1-0.5,0.2-0.7l0,0c-0.2,0.4-0.6,0.8-1.1,1c-0.5,0.2-0.9,0.3-1.4,0.3
			c-0.4,0-0.8-0.1-1.2-0.2c-0.3-0.1-0.6-0.4-0.8-0.6c-0.2-0.3-0.4-0.6-0.5-0.9c-0.1-0.4-0.2-0.7-0.2-1.2c0-0.5,0.1-1.1,0.3-1.6
			c0.2-0.5,0.4-1,0.7-1.4s0.7-0.7,1.2-1c0.5-0.3,1-0.4,1.6-0.4c0.3,0,0.5,0,0.8,0.1c0.3,0.1,0.5,0.2,0.7,0.3
			c0.2,0.1,0.4,0.3,0.6,0.5c0.1,0.2,0.2,0.5,0.3,0.7h0l0.3-1.5h0.8l-1.4,6.5C752.8,236.5,752.7,237,752.5,237.5z M748.1,234.3
			c0.1,0.3,0.2,0.5,0.4,0.7s0.4,0.4,0.6,0.5c0.2,0.1,0.5,0.2,0.9,0.2c0.5,0,0.9-0.1,1.2-0.3c0.4-0.2,0.7-0.5,0.9-0.9
			s0.4-0.7,0.6-1.2c0.1-0.4,0.2-0.8,0.2-1.2c0-0.3,0-0.6-0.1-0.9c-0.1-0.3-0.2-0.5-0.3-0.7c-0.2-0.2-0.4-0.4-0.6-0.5
			c-0.3-0.1-0.6-0.2-0.9-0.2c-0.5,0-0.9,0.1-1.2,0.3c-0.4,0.2-0.7,0.5-0.9,0.8c-0.2,0.3-0.4,0.7-0.6,1.1c-0.1,0.4-0.2,0.8-0.2,1.2
			C748,233.7,748,234,748.1,234.3z"/>
		<path class="st4" d="M756.8,229.4l-0.3,1.3h0c0.3-0.4,0.6-0.8,1.1-1.1c0.5-0.3,1-0.4,1.5-0.4c0.3,0,0.6,0,0.9,0.1
			c0.3,0.1,0.5,0.2,0.7,0.3c0.2,0.2,0.3,0.4,0.5,0.6c0.1,0.2,0.2,0.5,0.2,0.9c0,0.2,0,0.5-0.1,0.9l-1,4.6h-0.9l1-4.7
			c0-0.1,0.1-0.2,0.1-0.4c0-0.1,0-0.2,0-0.4c0-0.2,0-0.4-0.1-0.6c-0.1-0.2-0.2-0.3-0.3-0.4s-0.3-0.2-0.5-0.2c-0.2,0-0.4-0.1-0.6-0.1
			c-0.3,0-0.6,0.1-0.9,0.2c-0.3,0.1-0.6,0.3-0.8,0.6c-0.3,0.3-0.5,0.6-0.7,0.9c-0.2,0.4-0.3,0.8-0.4,1.2l-0.8,3.7h-0.9l1.5-7.2
			H756.8z"/>
	</g>
</g>
<line class="st5" x1="653.8" y1="206.7" x2="653.8" y2="318.7"/>
<line class="st5" x1="653.8" y1="443.8" x2="653.8" y2="518.3"/>
<rect class="st6" width="1366" height="768"/>
<g>
	<g class="st3">
		<path class="st4" d="M551,452.9l-0.3,1.3h0c0.3-0.5,0.7-0.8,1.1-1.1c0.4-0.3,0.9-0.4,1.6-0.4c0.5,0,0.9,0.1,1.2,0.2
			c0.3,0.1,0.6,0.3,0.9,0.6c0.2,0.3,0.4,0.6,0.5,0.9c0.1,0.4,0.2,0.8,0.2,1.2c0,0.6-0.1,1.1-0.3,1.7c-0.2,0.6-0.4,1.1-0.8,1.5
			c-0.3,0.4-0.8,0.8-1.3,1.1c-0.5,0.3-1,0.4-1.6,0.4c-0.3,0-0.6,0-0.8-0.1c-0.3-0.1-0.5-0.2-0.7-0.3c-0.2-0.1-0.4-0.3-0.5-0.5
			s-0.2-0.5-0.3-0.7h0l-0.9,4.1h-0.9l2.1-9.9H551z M552,453.8c-0.4,0.3-0.7,0.6-1,1c-0.3,0.4-0.5,0.8-0.6,1.3
			c-0.1,0.5-0.2,0.9-0.2,1.4c0,0.6,0.2,1.2,0.5,1.5c0.4,0.4,0.9,0.6,1.5,0.6c0.5,0,1-0.1,1.3-0.4c0.4-0.3,0.7-0.6,1-1
			c0.3-0.4,0.5-0.8,0.6-1.3c0.1-0.5,0.2-0.9,0.2-1.4c0-0.6-0.2-1.1-0.5-1.5c-0.3-0.4-0.8-0.6-1.5-0.6
			C552.8,453.4,552.4,453.6,552,453.8z"/>
		<path class="st4" d="M559,452.9l-0.4,1.7h0c0.3-0.5,0.6-0.9,1-1.3c0.4-0.3,0.9-0.5,1.6-0.5h0.2c0,0,0.1,0,0.1,0c0,0,0.1,0,0.1,0
			l-0.2,0.9c-0.1,0-0.2,0-0.3,0c-0.1,0-0.2,0-0.3,0c-0.4,0-0.7,0.1-1,0.2c-0.3,0.1-0.6,0.3-0.8,0.6c-0.2,0.2-0.4,0.5-0.6,0.8
			c-0.1,0.3-0.3,0.6-0.3,1l-0.8,3.8h-0.9l1.5-7.2H559z"/>
		<path class="st4" d="M566.4,452.9c0.4,0.1,0.7,0.3,0.9,0.6c0.3,0.2,0.5,0.5,0.6,0.9c0.1,0.4,0.2,0.7,0.2,1.2
			c0,0.6-0.1,1.2-0.3,1.8c-0.2,0.6-0.4,1.1-0.8,1.5c-0.3,0.4-0.8,0.8-1.3,1.1c-0.5,0.3-1.1,0.4-1.8,0.4c-0.9,0-1.7-0.3-2.2-0.8
			c-0.5-0.5-0.7-1.3-0.7-2.2c0-0.6,0.1-1.2,0.3-1.7c0.2-0.6,0.4-1.1,0.8-1.5c0.3-0.4,0.8-0.8,1.3-1c0.5-0.3,1.1-0.4,1.7-0.4
			C565.6,452.7,566,452.7,566.4,452.9z M565.5,459.2c0.4-0.2,0.7-0.6,0.9-0.9c0.2-0.4,0.4-0.8,0.6-1.3c0.1-0.5,0.2-0.9,0.2-1.3
			c0-0.7-0.2-1.2-0.5-1.6c-0.4-0.4-0.9-0.6-1.6-0.6c-0.5,0-0.9,0.1-1.3,0.4c-0.4,0.2-0.7,0.5-0.9,0.9c-0.3,0.4-0.4,0.8-0.6,1.2
			c-0.1,0.5-0.2,0.9-0.2,1.3c0,0.7,0.2,1.3,0.5,1.7c0.4,0.4,0.9,0.7,1.6,0.7C564.7,459.6,565.1,459.5,565.5,459.2z"/>
		<path class="st4" d="M574.1,460.1l0.3-1.3h0c-0.3,0.5-0.7,0.8-1.1,1.1c-0.4,0.3-0.9,0.4-1.6,0.4c-0.9,0-1.6-0.3-2.1-0.8
			c-0.5-0.5-0.7-1.2-0.7-2.1c0-0.6,0.1-1.1,0.3-1.7c0.2-0.6,0.4-1.1,0.8-1.5c0.3-0.4,0.8-0.8,1.3-1.1c0.5-0.3,1-0.4,1.6-0.4
			c0.6,0,1.1,0.1,1.5,0.4s0.7,0.6,0.9,1.2h0l0.9-4.1h0.9l-2.2,10H574.1z M573.2,459.2c0.4-0.3,0.7-0.6,1-1c0.3-0.4,0.5-0.8,0.6-1.3
			s0.2-0.9,0.2-1.4c0-0.6-0.2-1.2-0.5-1.5c-0.4-0.4-0.9-0.6-1.5-0.6c-0.5,0-1,0.1-1.3,0.4c-0.4,0.3-0.7,0.6-1,1
			c-0.3,0.4-0.5,0.8-0.6,1.3c-0.1,0.5-0.2,0.9-0.2,1.4c0,0.6,0.2,1.1,0.5,1.5c0.3,0.4,0.8,0.6,1.5,0.6
			C572.3,459.6,572.8,459.5,573.2,459.2z"/>
		<path class="st4" d="M581.7,460.1l0.3-1.3h0c-0.3,0.4-0.6,0.8-1.1,1.1c-0.5,0.3-1,0.4-1.5,0.4c-0.3,0-0.6,0-0.9-0.1
			c-0.3-0.1-0.5-0.2-0.7-0.3c-0.2-0.2-0.3-0.4-0.5-0.6c-0.1-0.2-0.2-0.5-0.2-0.9c0-0.2,0-0.5,0.1-0.9l1-4.6h0.9l-1,4.7
			c0,0.1-0.1,0.2-0.1,0.4c0,0.1,0,0.2,0,0.4c0,0.2,0,0.4,0.1,0.6c0.1,0.2,0.2,0.3,0.3,0.4s0.3,0.2,0.5,0.2c0.2,0,0.4,0.1,0.6,0.1
			c0.3,0,0.6-0.1,0.9-0.2c0.3-0.1,0.6-0.3,0.8-0.6c0.2-0.3,0.5-0.6,0.7-0.9c0.2-0.4,0.3-0.8,0.4-1.2l0.8-3.7h0.9l-1.6,7.2H581.7z"/>
		<path class="st4" d="M590.3,454.4c-0.1-0.2-0.2-0.4-0.4-0.5c-0.2-0.1-0.3-0.3-0.6-0.3c-0.2-0.1-0.5-0.1-0.7-0.1
			c-0.5,0-1,0.1-1.4,0.4c-0.4,0.2-0.7,0.5-1,0.9c-0.3,0.4-0.5,0.8-0.6,1.3c-0.1,0.5-0.2,0.9-0.2,1.4c0,0.3,0,0.6,0.1,0.9
			c0.1,0.3,0.2,0.5,0.4,0.7c0.2,0.2,0.4,0.4,0.6,0.5s0.6,0.2,0.9,0.2c0.6,0,1.1-0.2,1.5-0.5c0.4-0.3,0.7-0.8,0.9-1.3h0.9
			c-0.3,0.8-0.7,1.5-1.2,1.9c-0.6,0.4-1.3,0.6-2.2,0.6c-0.9,0-1.6-0.3-2.1-0.8c-0.5-0.5-0.7-1.3-0.7-2.2c0-0.6,0.1-1.1,0.3-1.7
			c0.2-0.6,0.4-1.1,0.8-1.5c0.3-0.4,0.7-0.8,1.2-1.1s1-0.4,1.7-0.4c0.4,0,0.8,0,1.1,0.1c0.3,0.1,0.6,0.2,0.9,0.5
			c0.2,0.2,0.4,0.5,0.6,0.8c0.1,0.3,0.2,0.7,0.2,1.1h-0.9C590.4,454.9,590.4,454.6,590.3,454.4z"/>
		<path class="st4" d="M593.6,452.9l0.5-2.2h0.9l-0.5,2.2h1.4l-0.1,0.7h-1.5l-1,4.6c0,0.2-0.1,0.3-0.1,0.4c0,0.1,0,0.2,0,0.3
			c0,0.1,0,0.2,0.1,0.3c0.1,0.1,0.2,0.2,0.4,0.2c0.3,0,0.7,0,1-0.1l-0.2,0.8c-0.2,0-0.3,0-0.5,0c-0.1,0-0.3,0-0.4,0
			c-0.2,0-0.3,0-0.5,0c-0.2,0-0.3-0.1-0.4-0.1c-0.1-0.1-0.2-0.2-0.3-0.3c-0.1-0.1-0.1-0.3-0.1-0.5c0-0.1,0-0.2,0-0.3
			c0-0.1,0-0.3,0.1-0.4l1-4.8h-1.3l0.2-0.7H593.6z"/>
		<path class="st4" d="M605.1,460.1l0.3-1.3h0c-0.3,0.5-0.7,0.8-1.1,1.1c-0.4,0.3-0.9,0.4-1.6,0.4c-0.9,0-1.6-0.3-2.1-0.8
			c-0.5-0.5-0.7-1.2-0.7-2.1c0-0.6,0.1-1.1,0.3-1.7c0.2-0.6,0.4-1.1,0.8-1.5c0.3-0.4,0.8-0.8,1.3-1.1c0.5-0.3,1-0.4,1.6-0.4
			c0.6,0,1.1,0.1,1.5,0.4s0.7,0.6,0.9,1.2h0l0.9-4.1h0.9l-2.2,10H605.1z M604.2,459.2c0.4-0.3,0.7-0.6,1-1c0.3-0.4,0.5-0.8,0.6-1.3
			s0.2-0.9,0.2-1.4c0-0.6-0.2-1.2-0.5-1.5c-0.4-0.4-0.9-0.6-1.5-0.6c-0.5,0-1,0.1-1.3,0.4c-0.4,0.3-0.7,0.6-1,1
			c-0.3,0.4-0.5,0.8-0.6,1.3c-0.1,0.5-0.2,0.9-0.2,1.4c0,0.6,0.2,1.1,0.5,1.5c0.3,0.4,0.8,0.6,1.5,0.6
			C603.3,459.6,603.8,459.5,604.2,459.2z"/>
		<path class="st4" d="M608.9,457.3c0,0.3,0,0.6,0.1,0.9s0.2,0.5,0.4,0.7c0.2,0.2,0.4,0.4,0.7,0.5c0.3,0.1,0.6,0.2,0.9,0.2
			c0.6,0,1.1-0.2,1.5-0.5c0.4-0.3,0.7-0.8,0.9-1.3h0.9c-0.2,0.8-0.6,1.4-1.2,1.9c-0.5,0.4-1.3,0.6-2.1,0.6c-1,0-1.7-0.3-2.2-0.8
			c-0.5-0.5-0.8-1.3-0.8-2.2c0-0.6,0.1-1.1,0.3-1.7c0.2-0.5,0.4-1,0.8-1.5c0.3-0.4,0.8-0.8,1.2-1c0.5-0.3,1-0.4,1.7-0.4
			c0.4,0,0.8,0.1,1.2,0.2c0.3,0.1,0.6,0.3,0.9,0.6c0.2,0.2,0.4,0.5,0.5,0.9c0.1,0.3,0.2,0.7,0.2,1.1c0,0.2,0,0.4,0,0.6
			c0,0.2,0,0.4-0.1,0.6H609C608.9,456.9,608.9,457.1,608.9,457.3z M613.8,455.7c0-0.1,0-0.2,0-0.3c0-0.6-0.2-1.1-0.5-1.5
			c-0.4-0.4-0.8-0.5-1.5-0.5c-0.4,0-0.7,0.1-1,0.2c-0.3,0.1-0.6,0.3-0.8,0.6c-0.2,0.2-0.4,0.5-0.6,0.8c-0.2,0.3-0.3,0.6-0.4,1h4.7
			C613.8,455.9,613.8,455.8,613.8,455.7z"/>
		<path class="st4" d="M616.2,458.6c0.1,0.2,0.3,0.4,0.5,0.6c0.2,0.1,0.4,0.2,0.7,0.3s0.5,0.1,0.8,0.1c0.2,0,0.4,0,0.6-0.1
			c0.2-0.1,0.4-0.1,0.6-0.2c0.2-0.1,0.3-0.2,0.4-0.4c0.1-0.2,0.2-0.4,0.2-0.6c0-0.2-0.1-0.4-0.2-0.6c-0.1-0.2-0.3-0.3-0.5-0.4
			c-0.2-0.1-0.4-0.2-0.6-0.3c-0.2-0.1-0.5-0.2-0.7-0.3c-0.2-0.1-0.5-0.2-0.7-0.3s-0.4-0.2-0.6-0.4s-0.3-0.3-0.4-0.5
			s-0.2-0.5-0.2-0.8c0-0.4,0.1-0.7,0.3-0.9s0.4-0.5,0.6-0.6c0.3-0.2,0.6-0.3,0.9-0.3c0.3-0.1,0.6-0.1,0.9-0.1c0.4,0,0.7,0,1.1,0.1
			s0.6,0.2,0.8,0.4s0.4,0.4,0.5,0.7c0.1,0.3,0.2,0.7,0.2,1.1h-0.9c0-0.3,0-0.5-0.1-0.7c-0.1-0.2-0.2-0.4-0.4-0.5
			c-0.2-0.1-0.3-0.2-0.6-0.3c-0.2-0.1-0.4-0.1-0.7-0.1c-0.2,0-0.4,0-0.6,0.1c-0.2,0-0.4,0.1-0.6,0.2s-0.3,0.2-0.4,0.4
			c-0.1,0.2-0.2,0.4-0.2,0.6c0,0.2,0,0.3,0.1,0.4c0.1,0.1,0.2,0.2,0.3,0.4s0.3,0.2,0.5,0.3c0.2,0.1,0.4,0.2,0.6,0.3
			c0.3,0.1,0.5,0.2,0.8,0.3s0.5,0.2,0.8,0.4c0.2,0.2,0.4,0.3,0.6,0.6c0.2,0.2,0.2,0.5,0.2,0.8c0,0.4-0.1,0.8-0.3,1
			c-0.2,0.3-0.4,0.5-0.7,0.7s-0.6,0.3-0.9,0.4c-0.3,0.1-0.7,0.1-1,0.1c-0.4,0-0.7,0-1-0.1c-0.3-0.1-0.6-0.2-0.9-0.4
			c-0.3-0.2-0.5-0.5-0.6-0.8c-0.2-0.3-0.2-0.7-0.2-1.2h0.9C616,458.1,616.1,458.4,616.2,458.6z"/>
		<path class="st4" d="M624.2,452.9l-1.6,7.2h-0.9l1.5-7.2H624.2z M624.8,450.1l-0.3,1.4h-0.9l0.3-1.4H624.8z"/>
		<path class="st4" d="M630.2,461c-0.2,0.5-0.4,0.8-0.7,1.1s-0.6,0.5-1,0.7s-0.9,0.2-1.4,0.2c-0.4,0-0.7,0-1.1-0.1
			c-0.3-0.1-0.6-0.2-0.9-0.4s-0.5-0.4-0.6-0.7c-0.1-0.3-0.2-0.7-0.2-1.1h0.9c0,0.3,0.1,0.6,0.2,0.8s0.3,0.4,0.5,0.5
			c0.2,0.1,0.4,0.2,0.6,0.3c0.2,0.1,0.5,0.1,0.8,0.1c0.4,0,0.7-0.1,1-0.2c0.3-0.1,0.5-0.3,0.7-0.5s0.4-0.4,0.5-0.7
			c0.1-0.3,0.2-0.5,0.3-0.8c0.1-0.3,0.2-0.5,0.2-0.8c0.1-0.3,0.1-0.5,0.2-0.7l0,0c-0.2,0.4-0.6,0.8-1.1,1c-0.5,0.2-0.9,0.3-1.4,0.3
			c-0.4,0-0.8-0.1-1.2-0.2c-0.3-0.1-0.6-0.4-0.8-0.6c-0.2-0.3-0.4-0.6-0.5-0.9c-0.1-0.4-0.2-0.7-0.2-1.2c0-0.5,0.1-1.1,0.3-1.6
			c0.2-0.5,0.4-1,0.7-1.4c0.3-0.4,0.7-0.7,1.2-1c0.5-0.3,1-0.4,1.6-0.4c0.3,0,0.5,0,0.8,0.1s0.5,0.2,0.7,0.3
			c0.2,0.1,0.4,0.3,0.6,0.5c0.1,0.2,0.2,0.5,0.3,0.7h0l0.3-1.5h0.8l-1.4,6.5C630.5,460,630.4,460.5,630.2,461z M625.8,457.8
			c0.1,0.3,0.2,0.5,0.4,0.7s0.4,0.4,0.6,0.5c0.2,0.1,0.5,0.2,0.9,0.2c0.5,0,0.9-0.1,1.2-0.3c0.4-0.2,0.7-0.5,0.9-0.9
			c0.3-0.4,0.4-0.7,0.6-1.2c0.1-0.4,0.2-0.8,0.2-1.2c0-0.3,0-0.6-0.1-0.9s-0.2-0.5-0.3-0.7c-0.2-0.2-0.4-0.3-0.6-0.5
			s-0.6-0.2-0.9-0.2c-0.5,0-0.9,0.1-1.2,0.3c-0.4,0.2-0.7,0.5-0.9,0.8s-0.4,0.7-0.6,1.1c-0.1,0.4-0.2,0.8-0.2,1.2
			C625.7,457.3,625.7,457.5,625.8,457.8z"/>
		<path class="st4" d="M634.5,452.9l-0.3,1.3h0c0.3-0.4,0.6-0.8,1.1-1.1c0.5-0.3,1-0.4,1.5-0.4c0.3,0,0.6,0,0.9,0.1
			c0.3,0.1,0.5,0.2,0.7,0.3c0.2,0.2,0.3,0.4,0.5,0.6c0.1,0.2,0.2,0.5,0.2,0.9c0,0.2,0,0.5-0.1,0.9l-1,4.6h-0.9l1-4.7
			c0-0.1,0.1-0.2,0.1-0.4c0-0.1,0-0.2,0-0.4c0-0.2,0-0.4-0.1-0.6c-0.1-0.2-0.2-0.3-0.3-0.4s-0.3-0.2-0.5-0.2s-0.4-0.1-0.6-0.1
			c-0.3,0-0.6,0.1-0.9,0.2c-0.3,0.1-0.6,0.3-0.8,0.6c-0.3,0.3-0.5,0.6-0.7,0.9c-0.2,0.4-0.3,0.8-0.4,1.2l-0.8,3.7h-0.9l1.5-7.2
			H634.5z"/>
	</g>
</g>
</svg>
