<?xml version="1.0" encoding="utf-8"?>
<!-- Generator: Adobe Illustrator 21.0.2, SVG Export Plug-In . SVG Version: 6.00 Build 0)  -->
<svg version="1.1" id="Layer_1" xmlns="http://www.w3.org/2000/svg" xmlns:xlink="http://www.w3.org/1999/xlink" x="0px" y="0px"
	 viewBox="0 0 1366 768" style="enable-background:new 0 0 1366 768;" xml:space="preserve">
<style type="text/css">
	.st0{fill:none;stroke:#2B2B2B;stroke-miterlimit:10;}
	.st1{fill:none;stroke:#000000;stroke-miterlimit:10;}
	.st2{fill:#FAFBFB;}
	.st3{font-family:'MaisonNeue-Light';}
	.st4{font-size:11.998px;}
	.st5{fill:#2B2B2B;}
	.st6{fill:none;stroke:#2B2B2B;stroke-width:3;stroke-miterlimit:10;}
	.st7{fill:none;stroke:#FAFBFB;stroke-miterlimit:10;}
</style>
<path class="st0" d="M55.4,17.6"/>
<path class="st1" d="M334.3,247.4"/>
<path class="st1" d="M365.9,563.9"/>
<rect x="621" y="163" class="st2" width="62" height="106.2"/>
<rect x="622.2" y="497.6" class="st2" width="62" height="101.5"/>
<rect x="624.3" y="326.4" class="st2" width="62" height="96.2"/>
<text transform="matrix(1 0 0 1 1161.1719 694.8297)" class="st3 st4">REBECCA YEAP</text>
<g>
	<g>
		<path class="st5" d="M672.9,191.9v-14.4h5.6c1.5,0,2.6,0.4,3.5,1.2c0.9,0.8,1.3,1.9,1.3,3.3s-0.4,2.5-1.3,3.3
			c-0.9,0.8-2,1.2-3.5,1.2h-3.6v5.4H672.9z M674.9,184.6h3.5c0.8,0,1.5-0.2,2-0.7c0.5-0.4,0.8-1.1,0.8-1.9c0-0.9-0.3-1.5-0.8-1.9
			c-0.5-0.4-1.2-0.6-2-0.6h-3.5V184.6z"/>
		<path class="st5" d="M688.8,191.9v-14.4h5.6c1.5,0,2.7,0.4,3.5,1.1c0.9,0.8,1.3,1.8,1.3,3.2c0,1.2-0.3,2.2-0.9,2.8
			c-0.6,0.7-1.4,1.1-2.5,1.3l3.1,5.8h-2.3l-3-5.7h-2.9v5.7H688.8z M690.9,184.4h3.4c0.9,0,1.6-0.2,2.1-0.6c0.5-0.4,0.8-1,0.8-1.9
			c0-1.7-1-2.5-3-2.5h-3.4V184.4z"/>
		<path class="st5" d="M710.6,192.2c-0.8,0-1.6-0.1-2.3-0.4c-0.7-0.3-1.4-0.7-1.9-1.3c-0.6-0.6-1-1.4-1.4-2.4s-0.5-2.2-0.5-3.5
			c0-2.3,0.6-4.1,1.8-5.4c1.2-1.3,2.7-1.9,4.4-1.9c1.7,0,3.1,0.7,4.3,2s1.8,3.1,1.8,5.5c0,1.3-0.2,2.5-0.5,3.5
			c-0.3,1-0.8,1.8-1.4,2.4c-0.6,0.6-1.2,1-1.9,1.3C712.2,192.1,711.4,192.2,710.6,192.2z M710.6,190.3c1.2,0,2.1-0.5,2.8-1.4
			c0.7-0.9,1.1-2.3,1.1-4.2c0-1.8-0.4-3.1-1.1-4.1s-1.7-1.4-2.8-1.4c-1.2,0-2.1,0.5-2.9,1.4c-0.8,0.9-1.1,2.3-1.1,4
			c0,1.9,0.4,3.3,1.1,4.3C708.5,189.8,709.5,190.3,710.6,190.3z"/>
		<path class="st5" d="M722.9,191.9v-14.4h4.6c0.8,0,1.6,0.1,2.3,0.4s1.4,0.7,2,1.3c0.6,0.6,1.1,1.3,1.4,2.2c0.3,0.9,0.5,2,0.5,3.2
			c0,1.3-0.2,2.5-0.5,3.4c-0.4,1-0.8,1.7-1.5,2.2c-0.6,0.5-1.3,0.9-2,1.2c-0.7,0.2-1.5,0.4-2.4,0.4H722.9z M725,190h2.3
			c1.3,0,2.4-0.4,3.1-1.2c0.7-0.8,1.1-2.2,1.1-4.1c0-1.7-0.4-3-1.1-3.9c-0.7-0.9-1.7-1.3-3-1.3H725V190z"/>
		<path class="st5" d="M739.5,187.2v-9.7h2.1v9.6c0,1,0.3,1.8,0.8,2.4c0.5,0.5,1.3,0.8,2.4,0.8s1.8-0.3,2.4-0.8
			c0.5-0.5,0.8-1.3,0.8-2.3v-9.6h2.1v9.7c0,1.6-0.5,2.9-1.4,3.7c-0.9,0.8-2.2,1.3-3.8,1.3s-2.9-0.4-3.8-1.3
			C740,190.1,739.5,188.9,739.5,187.2z"/>
		<path class="st5" d="M762,192.2c-0.8,0-1.6-0.1-2.3-0.4c-0.7-0.3-1.4-0.7-1.9-1.3c-0.6-0.6-1-1.4-1.4-2.4s-0.5-2.2-0.5-3.5
			c0-2.3,0.6-4.1,1.8-5.4c1.2-1.3,2.7-1.9,4.4-1.9c1.5,0,2.8,0.5,3.8,1.4c1,0.9,1.6,2.1,1.8,3.7l-2.1,0.3c-0.4-2.3-1.5-3.5-3.5-3.5
			c-1.2,0-2.1,0.5-2.9,1.4c-0.8,0.9-1.1,2.3-1.1,4c0,1.9,0.4,3.3,1.1,4.3c0.7,0.9,1.7,1.4,2.9,1.4c2,0,3.1-1.3,3.4-3.9l2.2,0.3
			c-0.1,1.7-0.7,3-1.7,4C764.9,191.7,763.6,192.2,762,192.2z"/>
		<path class="st5" d="M776.3,191.9v-12.4H772v-1.9h10.8v1.9h-4.4v12.4H776.3z"/>
	</g>
</g>
<line class="st6" x1="653.8" y1="174.8" x2="653.8" y2="256.4"/>
<line class="st6" x1="653.6" y1="340.1" x2="653.6" y2="404.5"/>
<g>
	<g>
		<path class="st5" d="M496.5,357.8l-0.9-2.6h-6.2l-0.9,2.6h-2.1l5.2-14.4h2l5.2,14.4H496.5z M492.4,346.4l-2.4,7h4.9L492.4,346.4
			L492.4,346.4z"/>
		<path class="st5" d="M504.1,357.8v-14.4h5.6c1.5,0,2.7,0.4,3.5,1.1c0.9,0.8,1.3,1.8,1.3,3.2c0,1.2-0.3,2.2-0.9,2.8
			c-0.6,0.7-1.4,1.1-2.5,1.3l3.1,5.8h-2.3l-3-5.7h-2.9v5.7H504.1z M506.2,350.3h3.4c0.9,0,1.6-0.2,2.1-0.6c0.5-0.4,0.8-1,0.8-1.9
			c0-1.7-1-2.5-3-2.5h-3.4V350.3z"/>
		<path class="st5" d="M525.9,358.1c-0.8,0-1.6-0.1-2.3-0.4s-1.4-0.7-1.9-1.3c-0.6-0.6-1-1.4-1.4-2.4c-0.3-1-0.5-2.2-0.5-3.5
			c0-2.3,0.6-4.1,1.8-5.4c1.2-1.3,2.7-1.9,4.4-1.9c1.5,0,2.8,0.5,3.8,1.4c1,0.9,1.6,2.1,1.8,3.7l-2.1,0.3c-0.4-2.3-1.5-3.5-3.5-3.5
			c-1.2,0-2.1,0.5-2.9,1.4c-0.8,0.9-1.1,2.3-1.1,4c0,1.9,0.4,3.3,1.1,4.3c0.7,0.9,1.7,1.4,2.9,1.4c2,0,3.1-1.3,3.4-3.9l2.2,0.3
			c-0.1,1.7-0.7,3-1.7,4C528.8,357.6,527.5,358.1,525.9,358.1z"/>
		<path class="st5" d="M537.6,357.8v-14.4h2.1v6h5.9v-6h2.1v14.4h-2.1v-6.5h-5.9v6.5H537.6z"/>
		<path class="st5" d="M554.7,357.8v-14.4h2.1v14.4H554.7z"/>
		<path class="st5" d="M566.8,357.8v-12.4h-4.4v-1.9h10.8v1.9h-4.4v12.4H566.8z"/>
		<path class="st5" d="M578.8,357.8v-14.4h8.8v1.9h-6.8v4.2h6.2v1.8h-6.2v4.6h6.8v1.9H578.8z"/>
		<path class="st5" d="M599.4,358.1c-0.8,0-1.6-0.1-2.3-0.4s-1.4-0.7-1.9-1.3c-0.6-0.6-1-1.4-1.4-2.4c-0.3-1-0.5-2.2-0.5-3.5
			c0-2.3,0.6-4.1,1.8-5.4c1.2-1.3,2.7-1.9,4.4-1.9c1.5,0,2.8,0.5,3.8,1.4c1,0.9,1.6,2.1,1.8,3.7l-2.1,0.3c-0.4-2.3-1.5-3.5-3.5-3.5
			c-1.2,0-2.1,0.5-2.9,1.4c-0.8,0.9-1.1,2.3-1.1,4c0,1.9,0.4,3.3,1.1,4.3c0.7,0.9,1.7,1.4,2.9,1.4c2,0,3.1-1.3,3.4-3.9l2.2,0.3
			c-0.1,1.7-0.7,3-1.7,4C602.3,357.6,601,358.1,599.4,358.1z"/>
		<path class="st5" d="M613.8,357.8v-12.4h-4.4v-1.9h10.8v1.9h-4.4v12.4H613.8z"/>
		<path class="st5" d="M625.5,353.2v-9.7h2.1v9.6c0,1,0.3,1.8,0.8,2.4c0.5,0.5,1.3,0.8,2.4,0.8s1.8-0.3,2.4-0.8
			c0.5-0.5,0.8-1.3,0.8-2.3v-9.6h2.1v9.7c0,1.6-0.5,2.9-1.4,3.7c-0.9,0.8-2.2,1.3-3.8,1.3c-1.6,0-2.9-0.4-3.8-1.3
			C625.9,356,625.5,354.8,625.5,353.2z"/>
		<path class="st5" d="M642.6,357.8v-14.4h5.6c1.5,0,2.7,0.4,3.5,1.1c0.9,0.8,1.3,1.8,1.3,3.2c0,1.2-0.3,2.2-0.9,2.8
			c-0.6,0.7-1.4,1.1-2.5,1.3l3.1,5.8h-2.3l-3-5.7h-2.9v5.7H642.6z M644.7,350.3h3.4c0.9,0,1.6-0.2,2.1-0.6c0.5-0.4,0.8-1,0.8-1.9
			c0-1.7-1-2.5-3-2.5h-3.4V350.3z"/>
		<path class="st5" d="M659.1,357.8v-14.4h8.8v1.9h-6.8v4.2h6.2v1.8h-6.2v4.6h6.8v1.9H659.1z"/>
	</g>
</g>
<line class="st6" x1="653.8" y1="516.2" x2="653.8" y2="579.4"/>
<g>
	<g>
		<path class="st5" d="M678.2,532.7l-5.1-14.4h2.2l4,11.5h0l3.9-11.5h2.2l-5,14.4H678.2z"/>
		<path class="st5" d="M690.9,532.7v-14.4h2.1v14.4H690.9z"/>
		<path class="st5" d="M699.2,527.8l2.2-0.4c0.2,1.3,0.5,2.2,1.1,2.8c0.5,0.6,1.4,0.9,2.6,0.9c1,0,1.7-0.2,2.3-0.6
			c0.5-0.4,0.8-0.9,0.8-1.6c0-0.6-0.2-1.1-0.7-1.5s-1.5-0.8-3.2-1.3c-1.6-0.5-2.7-1.1-3.3-1.7c-0.7-0.6-1-1.4-1-2.4
			c0-1.1,0.4-2,1.3-2.7s2-1.1,3.4-1.1c1.3,0,2.5,0.3,3.4,1c0.9,0.7,1.5,1.7,1.7,3l-2.1,0.5c-0.2-0.8-0.5-1.4-1-1.8
			c-0.5-0.4-1.2-0.6-2.1-0.6c-0.9,0-1.5,0.2-1.9,0.6c-0.4,0.4-0.7,0.8-0.7,1.4c0,0.5,0.2,0.9,0.7,1.2c0.4,0.3,1.4,0.7,3,1.2
			c1.8,0.6,3,1.2,3.7,1.8c0.6,0.6,1,1.5,1,2.6c0,1.2-0.5,2.2-1.4,3c-0.9,0.8-2.2,1.2-3.7,1.2c-1.7,0-3-0.4-4-1.3
			C700,530.8,699.4,529.5,699.2,527.8z"/>
		<path class="st5" d="M715.6,528v-9.7h2.1v9.6c0,1,0.3,1.8,0.8,2.4c0.5,0.5,1.3,0.8,2.4,0.8s1.8-0.3,2.4-0.8
			c0.5-0.5,0.8-1.3,0.8-2.3v-9.6h2.1v9.7c0,1.6-0.5,2.9-1.4,3.7c-0.9,0.8-2.2,1.3-3.8,1.3s-2.9-0.4-3.8-1.3
			C716.1,530.9,715.6,529.6,715.6,528z"/>
		<path class="st5" d="M740.8,532.7l-0.9-2.6h-6.2l-0.9,2.6h-2.1l5.2-14.4h2l5.2,14.4H740.8z M736.7,521.3l-2.4,7h4.9L736.7,521.3
			L736.7,521.3z"/>
		<path class="st5" d="M748.4,532.7v-14.4h2.1v12.5h6.2v1.9H748.4z"/>
		<path class="st5" d="M769.7,532.7v-14.4h4.6c0.8,0,1.6,0.1,2.3,0.4s1.4,0.7,2,1.3c0.6,0.6,1.1,1.3,1.4,2.2c0.3,0.9,0.5,2,0.5,3.2
			c0,1.3-0.2,2.5-0.5,3.4c-0.4,1-0.8,1.7-1.5,2.2c-0.6,0.5-1.3,0.9-2,1.2c-0.7,0.2-1.5,0.4-2.4,0.4H769.7z M771.7,530.8h2.3
			c1.3,0,2.4-0.4,3.1-1.2c0.7-0.8,1.1-2.2,1.1-4.1c0-1.7-0.4-3-1.1-3.9c-0.7-0.9-1.7-1.3-3-1.3h-2.4V530.8z"/>
		<path class="st5" d="M786.6,532.7v-14.4h8.8v1.9h-6.8v4.2h6.2v1.8h-6.2v4.6h6.8v1.9H786.6z"/>
		<path class="st5" d="M801,527.8l2.2-0.4c0.2,1.3,0.5,2.2,1.1,2.8s1.4,0.9,2.6,0.9c1,0,1.7-0.2,2.3-0.6c0.5-0.4,0.8-0.9,0.8-1.6
			c0-0.6-0.2-1.1-0.7-1.5c-0.5-0.4-1.5-0.8-3.2-1.3c-1.6-0.5-2.7-1.1-3.3-1.7c-0.7-0.6-1-1.4-1-2.4c0-1.1,0.4-2,1.3-2.7
			s2-1.1,3.4-1.1c1.3,0,2.5,0.3,3.4,1c0.9,0.7,1.5,1.7,1.7,3l-2.1,0.5c-0.2-0.8-0.5-1.4-1-1.8c-0.5-0.4-1.2-0.6-2.1-0.6
			c-0.9,0-1.5,0.2-1.9,0.6c-0.4,0.4-0.7,0.8-0.7,1.4c0,0.5,0.2,0.9,0.7,1.2c0.4,0.3,1.4,0.7,3,1.2c1.8,0.6,3,1.2,3.7,1.8
			c0.6,0.6,1,1.5,1,2.6c0,1.2-0.5,2.2-1.4,3c-0.9,0.8-2.2,1.2-3.7,1.2c-1.7,0-3-0.4-4-1.3C801.8,530.8,801.2,529.5,801,527.8z"/>
		<path class="st5" d="M817.8,532.7v-14.4h2.1v14.4H817.8z"/>
		<path class="st5" d="M832.3,533c-0.9,0-1.6-0.1-2.4-0.4c-0.7-0.3-1.4-0.7-1.9-1.3c-0.6-0.6-1-1.4-1.4-2.4c-0.3-1-0.5-2.2-0.5-3.5
			c0-1.2,0.2-2.2,0.5-3.2c0.3-1,0.8-1.7,1.4-2.3s1.2-1,2-1.4c0.7-0.3,1.5-0.5,2.3-0.5c1.4,0,2.6,0.4,3.6,1.3c1,0.9,1.6,2,1.8,3.5
			l-2.1,0.4c-0.4-2.1-1.6-3.2-3.3-3.2c-1.1,0-2.1,0.5-2.9,1.4s-1.2,2.3-1.2,4c0,1.9,0.4,3.3,1.1,4.3c0.7,1,1.7,1.4,2.9,1.4
			c1.1,0,2-0.3,2.6-1c0.6-0.7,0.9-1.6,0.9-2.7h-3.3v-1.8h5.3v1.6c0,1.8-0.5,3.3-1.5,4.3S834,533,832.3,533z"/>
		<path class="st5" d="M844,532.7v-14.4h2.1l6.2,10.7h0v-10.7h2.1v14.4h-2.1l-6.3-10.7h0v10.7H844z"/>
	</g>
</g>
<rect class="st7" width="1366" height="768"/>
</svg>
