<?xml version="1.0" encoding="utf-8"?>
<!-- Generator: Adobe Illustrator 23.0.0, SVG Export Plug-In . SVG Version: 6.00 Build 0)  -->
<svg version="1.1" id="Layer_1" xmlns="http://www.w3.org/2000/svg" xmlns:xlink="http://www.w3.org/1999/xlink" x="0px" y="0px"
	 viewBox="0 0 1366 768" style="enable-background:new 0 0 1366 768;" xml:space="preserve">
<style type="text/css">
	.st0{fill:none;stroke:#2B2B2B;stroke-miterlimit:10;}
	.st1{fill:none;stroke:#000000;stroke-miterlimit:10;}
	.st2{fill:#FAFAFA;}
	.st3{fill:none;stroke:#5C5C5C;stroke-width:3;stroke-miterlimit:10;}
	.st4{fill:none;stroke:#FAFBFB;stroke-miterlimit:10;}
	.st5{fill:#5C5C5C;}
	.st6{font-family:'MaisonNeue-Mono';}
	.st7{font-size:16.5px;}
	.st8{fill:none;stroke:#5C5C5C;stroke-width:0.25;stroke-miterlimit:10;}
	.st9{fill:#5C5C5C;stroke:#5C5C5C;stroke-width:0.25;stroke-miterlimit:10;}
</style>
<path class="st0" d="M55.4,17.6"/>
<path class="st1" d="M334.3,247.4"/>
<path class="st1" d="M365.9,563.9"/>
<rect x="621" y="163" class="st2" width="62" height="106.2"/>
<rect x="622.2" y="497.6" class="st2" width="62" height="101.5"/>
<rect x="624.3" y="326.4" class="st2" width="62" height="96.2"/>
<line class="st3" x1="653.8" y1="174.8" x2="653.8" y2="256.4"/>
<line class="st3" x1="653.6" y1="340.1" x2="653.6" y2="404.5"/>
<line class="st3" x1="653.8" y1="516.2" x2="653.8" y2="579.4"/>
<rect class="st4" width="1366" height="768"/>
<text transform="matrix(1 0 0 1 669.7069 188.0731)" class="st5 st6 st7">PRODUCT</text>
<text transform="matrix(1 0 0 1 669.7069 188.0731)" class="st8 st6 st7">PRODUCT</text>
<text transform="matrix(1 0 0 1 497.9453 356.3354)" class="st5 st6 st7">ARCHITECTURE</text>
<text transform="matrix(1 0 0 1 497.9453 356.3354)" class="st8 st6 st7">ARCHITECTURE</text>
<text transform="matrix(1 0 0 1 670.7069 528.6574)" class="st9 st6 st7">UI/UX </text>
<text transform="matrix(1 0 0 1 735.2927 528.6578)" class="st9 st6 st7">DESIGN</text>
</svg>
