<?xml version="1.0" encoding="utf-8"?>
<!-- Generator: Adobe Illustrator 23.0.0, SVG Export Plug-In . SVG Version: 6.00 Build 0)  -->
<svg version="1.1" id="Layer_1" xmlns="http://www.w3.org/2000/svg" xmlns:xlink="http://www.w3.org/1999/xlink" x="0px" y="0px"
	 viewBox="0 0 1366 768" style="enable-background:new 0 0 1366 768;" xml:space="preserve">
<style type="text/css">
	.st0{fill:none;stroke:#2B2B2B;stroke-miterlimit:10;}
	.st1{fill:none;stroke:#000000;stroke-miterlimit:10;}
	.st2{fill:#FAFAFA;}
	.st3{fill:none;stroke:#5C5C5C;stroke-width:3;stroke-miterlimit:10;}
	.st4{fill:none;stroke:#FAFBFB;stroke-miterlimit:10;}
	.st5{fill:#5C5C5C;}
	.st6{font-family:'MaisonNeue-Mono';}
	.st7{font-size:16.5px;}
	.st8{enable-background:new    ;}
	.st9{fill:none;stroke:#5C5C5C;stroke-width:0.25;stroke-miterlimit:10;}
</style>
<path class="st0" d="M55.4,17.6"/>
<path class="st1" d="M334.3,247.4"/>
<path class="st1" d="M365.9,563.9"/>
<rect x="621" y="163" class="st2" width="62" height="106.2"/>
<rect x="622.2" y="497.6" class="st2" width="62" height="101.5"/>
<rect x="624.3" y="326.4" class="st2" width="62" height="96.2"/>
<line class="st3" x1="653.8" y1="174.8" x2="653.8" y2="256.4"/>
<line class="st3" x1="653.6" y1="340.1" x2="653.6" y2="404.5"/>
<line class="st3" x1="653.8" y1="516.2" x2="653.8" y2="579.4"/>
<rect class="st4" width="1366" height="768"/>
<text transform="matrix(1 0 0 1 669.7069 188.0731)" class="st5 st6 st7">PRODUCT</text>
<g class="st8">
	<path class="st9" d="M671.6,188.1v-11.5h4c1.2,0,2.1,0.3,2.8,0.9c0.7,0.6,1.1,1.5,1.1,2.6c0,1.1-0.3,2-1,2.6
		c-0.7,0.6-1.6,0.9-2.8,0.9H673v4.5H671.6z M673,182.4h2.5c0.7,0,1.3-0.2,1.8-0.6c0.5-0.4,0.7-1,0.7-1.7c0-0.8-0.2-1.4-0.7-1.7
		c-0.5-0.4-1.1-0.6-1.8-0.6H673V182.4z"/>
	<path class="st9" d="M682.3,188.1v-11.5h3.7c1.2,0,2.2,0.3,2.9,0.9s1,1.4,1,2.6c0,0.9-0.3,1.7-0.8,2.2c-0.5,0.6-1.2,0.9-2.1,1.1
		l2.6,4.8h-1.5l-2.5-4.7h-1.8v4.7H682.3z M683.7,182.1h2.2c0.8,0,1.4-0.2,1.9-0.5c0.5-0.3,0.7-0.9,0.7-1.7c0-1.5-0.9-2.2-2.6-2.2
		h-2.1V182.1z"/>
	<path class="st9" d="M696.5,188.3c-0.6,0-1.1-0.1-1.6-0.3c-0.5-0.2-1-0.6-1.4-1s-0.7-1.1-1-1.9c-0.2-0.8-0.4-1.7-0.4-2.8
		c0-1.9,0.4-3.3,1.3-4.4c0.9-1,1.9-1.6,3.1-1.6c1.2,0,2.2,0.5,3.1,1.6c0.9,1.1,1.3,2.5,1.3,4.4c0,1.1-0.1,2-0.4,2.8
		c-0.2,0.8-0.6,1.4-1,1.9c-0.4,0.5-0.9,0.8-1.4,1S697.1,188.3,696.5,188.3z M696.5,187c0.9,0,1.6-0.4,2.1-1.2c0.5-0.8,0.8-2,0.8-3.6
		c0-1.5-0.3-2.7-0.8-3.5c-0.5-0.8-1.2-1.2-2.1-1.2c-0.9,0-1.6,0.4-2.1,1.2c-0.5,0.8-0.8,1.9-0.8,3.5c0,1.6,0.3,2.8,0.8,3.6
		C695,186.6,695.7,187,696.5,187z"/>
	<path class="st9" d="M703.5,188.1v-11.5h3.2c0.7,0,1.3,0.1,1.9,0.3c0.6,0.2,1.1,0.6,1.6,1s0.9,1.1,1.1,1.8c0.3,0.8,0.4,1.6,0.4,2.6
		c0,1.1-0.1,2-0.4,2.8s-0.7,1.4-1.2,1.8c-0.5,0.4-1,0.7-1.6,0.9s-1.2,0.3-1.9,0.3H703.5z M704.9,186.8h1.5c2.5,0,3.8-1.5,3.8-4.5
		c0-1.5-0.3-2.6-1-3.3s-1.5-1.2-2.7-1.2h-1.6V186.8z"/>
	<path class="st9" d="M713.8,184.3v-7.8h1.4v7.7c0,1.9,0.9,2.8,2.7,2.8c0.9,0,1.6-0.2,2.1-0.7c0.5-0.5,0.7-1.2,0.7-2.1v-7.7h1.4v7.8
		c0,1.3-0.4,2.3-1.1,3c-0.7,0.7-1.7,1-3.1,1c-1.3,0-2.3-0.3-3-1C714.2,186.6,713.8,185.6,713.8,184.3z"/>
	<path class="st9" d="M729,177.6c-0.9,0-1.6,0.4-2.1,1.2s-0.8,1.9-0.8,3.5c0,1.6,0.3,2.8,0.8,3.6c0.5,0.8,1.2,1.2,2.2,1.2
		c0.8,0,1.4-0.3,1.8-0.9c0.4-0.6,0.7-1.4,0.8-2.4l1.4,0.2c-0.1,1.3-0.5,2.4-1.2,3.2c-0.7,0.8-1.7,1.2-2.8,1.2
		c-1.3,0-2.3-0.5-3.2-1.5c-0.8-1-1.3-2.5-1.3-4.6c0-1.9,0.4-3.4,1.3-4.4c0.9-1,1.9-1.5,3.2-1.5c1.1,0,2,0.4,2.7,1.1
		c0.7,0.7,1.2,1.7,1.3,2.9l-1.4,0.2c-0.1-0.9-0.4-1.6-0.8-2.1C730.4,177.9,729.8,177.6,729,177.6z"/>
	<path class="st9" d="M738.7,188.1v-10.3h-3.9v-1.3h9.2v1.3h-3.9v10.3H738.7z"/>
</g>
<text transform="matrix(1 0 0 1 497.9453 356.3354)" class="st5 st6 st7">ARCHITECTURE</text>
<g class="st8">
	<path class="st9" d="M506.4,356.3l-0.8-2.3h-4.7l-0.7,2.3h-1.4l3.8-11.5h1.4l3.8,11.5H506.4z M505.2,352.9l-1.9-6.3h0l-2,6.3H505.2
		z"/>
	<path class="st9" d="M510.6,356.3v-11.5h3.7c1.2,0,2.2,0.3,2.9,0.9c0.7,0.6,1,1.4,1,2.6c0,0.9-0.3,1.7-0.8,2.2
		c-0.5,0.6-1.2,0.9-2.1,1.1l2.6,4.8h-1.5l-2.5-4.7H512v4.7H510.6z M512,350.4h2.2c0.8,0,1.4-0.2,1.9-0.5s0.7-0.9,0.7-1.7
		c0-1.5-0.9-2.2-2.6-2.2H512V350.4z"/>
	<path class="st9" d="M525.1,345.8c-0.9,0-1.6,0.4-2.1,1.2s-0.8,1.9-0.8,3.5c0,1.6,0.3,2.8,0.8,3.6c0.5,0.8,1.2,1.2,2.2,1.2
		c0.8,0,1.4-0.3,1.8-0.9c0.4-0.6,0.7-1.4,0.8-2.4l1.4,0.2c-0.1,1.3-0.5,2.4-1.2,3.2c-0.7,0.8-1.7,1.2-2.8,1.2
		c-1.3,0-2.3-0.5-3.2-1.5s-1.3-2.5-1.3-4.6c0-1.9,0.4-3.4,1.3-4.4c0.9-1,1.9-1.5,3.2-1.5c1.1,0,2,0.4,2.7,1.1s1.2,1.7,1.3,2.9
		l-1.4,0.2c-0.1-0.9-0.4-1.6-0.8-2.1C526.5,346.1,525.9,345.8,525.1,345.8z"/>
	<path class="st9" d="M531.7,356.3v-11.5h1.4v5h4.8v-5h1.4v11.5h-1.4V351h-4.8v5.4H531.7z"/>
	<path class="st9" d="M542.7,346v-1.2h6.9v1.2h-2.8v9.1h2.8v1.2h-6.9v-1.2h2.8V346H542.7z"/>
	<path class="st9" d="M556.2,356.3V346h-3.9v-1.3h9.2v1.3h-3.9v10.3H556.2z"/>
	<path class="st9" d="M564.5,356.3v-11.5h6.8v1.3h-5.4v3.7h4.9v1.2h-4.9v4.1h5.4v1.3H564.5z"/>
	<path class="st9" d="M578.7,345.8c-0.9,0-1.6,0.4-2.1,1.2s-0.8,1.9-0.8,3.5c0,1.6,0.3,2.8,0.8,3.6c0.5,0.8,1.2,1.2,2.2,1.2
		c0.8,0,1.4-0.3,1.8-0.9c0.4-0.6,0.7-1.4,0.8-2.4l1.4,0.2c-0.1,1.3-0.5,2.4-1.2,3.2c-0.7,0.8-1.7,1.2-2.8,1.2
		c-1.3,0-2.3-0.5-3.2-1.5s-1.3-2.5-1.3-4.6c0-1.9,0.4-3.4,1.3-4.4c0.9-1,1.9-1.5,3.2-1.5c1.1,0,2,0.4,2.7,1.1s1.2,1.7,1.3,2.9
		l-1.4,0.2c-0.1-0.9-0.4-1.6-0.8-2.1C580.1,346.1,579.5,345.8,578.7,345.8z"/>
	<path class="st9" d="M588.4,356.3V346h-3.9v-1.3h9.2v1.3h-3.9v10.3H588.4z"/>
	<path class="st9" d="M595.7,352.6v-7.8h1.4v7.7c0,1.9,0.9,2.8,2.7,2.8c0.9,0,1.6-0.2,2.1-0.7c0.5-0.5,0.7-1.2,0.7-2.1v-7.7h1.4v7.8
		c0,1.3-0.4,2.3-1.1,3s-1.7,1-3.1,1c-1.3,0-2.3-0.3-3-1S595.7,353.9,595.7,352.6z"/>
	<path class="st9" d="M607.1,356.3v-11.5h3.7c1.2,0,2.2,0.3,2.9,0.9c0.7,0.6,1,1.4,1,2.6c0,0.9-0.3,1.7-0.8,2.2
		c-0.5,0.6-1.2,0.9-2.1,1.1l2.6,4.8h-1.5l-2.5-4.7h-1.8v4.7H607.1z M608.5,350.4h2.2c0.8,0,1.4-0.2,1.9-0.5s0.7-0.9,0.7-1.7
		c0-1.5-0.9-2.2-2.6-2.2h-2.1V350.4z"/>
	<path class="st9" d="M618.1,356.3v-11.5h6.8v1.3h-5.4v3.7h4.9v1.2h-4.9v4.1h5.4v1.3H618.1z"/>
</g>
<text transform="matrix(1 0 0 1 670.7069 528.6574)" class="st5 st6 st7">UI/UX </text>
<g class="st8">
	<path class="st9" d="M671.9,524.9v-7.8h1.4v7.7c0,1.9,0.9,2.8,2.7,2.8c0.9,0,1.6-0.2,2.1-0.7c0.5-0.5,0.7-1.2,0.7-2.1v-7.7h1.4v7.8
		c0,1.3-0.4,2.3-1.1,3s-1.7,1-3.1,1c-1.3,0-2.3-0.3-3-1S671.9,526.2,671.9,524.9z"/>
	<path class="st9" d="M683.3,518.3v-1.2h6.9v1.2h-2.8v9.1h2.8v1.2h-6.9v-1.2h2.8v-9.1H683.3z"/>
	<path class="st9" d="M694.1,528.9l5.9-12.5l1.1,0.5l-5.9,12.5L694.1,528.9z"/>
	<path class="st9" d="M704.1,524.9v-7.8h1.4v7.7c0,1.9,0.9,2.8,2.7,2.8c0.9,0,1.6-0.2,2.1-0.7c0.5-0.5,0.7-1.2,0.7-2.1v-7.7h1.4v7.8
		c0,1.3-0.4,2.3-1.1,3c-0.7,0.7-1.7,1-3.1,1c-1.3,0-2.3-0.3-3-1C704.5,527.2,704.1,526.2,704.1,524.9z"/>
	<path class="st9" d="M714.6,528.7l3.6-6l-3.3-5.5h1.6l2.6,4.6h0l2.5-4.6h1.5l-3.2,5.6l3.5,5.9h-1.6l-2.8-4.9h0l-2.8,4.9H714.6z"/>
</g>
<g>
	<g class="st8">
		<path class="st5" d="M731.9,528.7v-11.5h3.2c0.7,0,1.3,0.1,1.9,0.3c0.6,0.2,1.1,0.6,1.6,1s0.9,1.1,1.1,1.8
			c0.3,0.8,0.4,1.6,0.4,2.6c0,1.1-0.1,2-0.4,2.8s-0.7,1.4-1.2,1.8c-0.5,0.4-1,0.7-1.6,0.9s-1.2,0.3-1.9,0.3H731.9z M733.3,527.4h1.5
			c2.5,0,3.8-1.5,3.8-4.5c0-1.5-0.3-2.6-1-3.3s-1.5-1.2-2.7-1.2h-1.6V527.4z"/>
		<path class="st5" d="M743.2,528.7v-11.5h6.8v1.3h-5.4v3.7h4.9v1.2h-4.9v4.1h5.4v1.3H743.2z"/>
		<path class="st5" d="M752.9,524.7l1.5-0.3c0.2,1.1,0.5,1.9,0.9,2.5c0.4,0.5,1.2,0.8,2.2,0.8c0.8,0,1.4-0.2,1.8-0.6
			c0.4-0.4,0.6-0.9,0.6-1.4c0-0.6-0.2-1.1-0.5-1.4c-0.4-0.3-1.1-0.7-2.4-1.2c-1.2-0.5-2.1-0.9-2.7-1.4c-0.5-0.5-0.8-1.1-0.8-1.9
			c0-0.8,0.3-1.6,1-2.1c0.6-0.6,1.5-0.8,2.5-0.8c1,0,1.8,0.3,2.6,0.8c0.7,0.5,1.1,1.3,1.3,2.4l-1.4,0.3c-0.3-1.5-1.1-2.2-2.5-2.2
			c-0.7,0-1.2,0.2-1.5,0.5s-0.5,0.7-0.5,1.2c0,0.4,0.2,0.8,0.5,1.1c0.3,0.3,1.1,0.6,2.2,1c1.4,0.5,2.4,1,2.9,1.5s0.8,1.2,0.8,2.1
			c0,0.9-0.3,1.7-1,2.4s-1.6,1-2.8,1C754.7,528.9,753.2,527.5,752.9,524.7z"/>
		<path class="st5" d="M764.4,518.3v-1.2h6.9v1.2h-2.8v9.1h2.8v1.2h-6.9v-1.2h2.8v-9.1H764.4z"/>
		<path class="st5" d="M778.9,528.9c-1.3,0-2.4-0.5-3.2-1.5c-0.9-1-1.3-2.6-1.3-4.6c0-1.9,0.4-3.3,1.3-4.4c0.9-1,1.9-1.6,3.2-1.6
			c1,0,1.9,0.4,2.6,1.1c0.7,0.7,1.2,1.6,1.3,2.8l-1.4,0.2c-0.1-0.8-0.4-1.5-0.8-2c-0.4-0.5-1-0.8-1.7-0.8c-0.9,0-1.6,0.4-2.2,1.2
			c-0.6,0.8-0.8,1.9-0.8,3.4c0,1.6,0.3,2.8,0.8,3.6c0.6,0.8,1.3,1.2,2.2,1.2c0.8,0,1.5-0.3,2-0.9c0.5-0.6,0.7-1.4,0.7-2.5h-2.9V523
			h4.3v1.1c0,1.5-0.4,2.7-1.1,3.5C781,528.5,780.1,528.9,778.9,528.9z"/>
		<path class="st5" d="M785.6,528.7v-11.5h1.4l4.6,9.2h0v-9.2h1.3v11.5h-1.4l-4.6-9.2h0v9.2H785.6z"/>
	</g>
	<g class="st8">
		<path class="st9" d="M731.9,528.7v-11.5h3.2c0.7,0,1.3,0.1,1.9,0.3c0.6,0.2,1.1,0.6,1.6,1s0.9,1.1,1.1,1.8
			c0.3,0.8,0.4,1.6,0.4,2.6c0,1.1-0.1,2-0.4,2.8s-0.7,1.4-1.2,1.8c-0.5,0.4-1,0.7-1.6,0.9s-1.2,0.3-1.9,0.3H731.9z M733.3,527.4h1.5
			c2.5,0,3.8-1.5,3.8-4.5c0-1.5-0.3-2.6-1-3.3s-1.5-1.2-2.7-1.2h-1.6V527.4z"/>
		<path class="st9" d="M743.2,528.7v-11.5h6.8v1.3h-5.4v3.7h4.9v1.2h-4.9v4.1h5.4v1.3H743.2z"/>
		<path class="st9" d="M752.9,524.7l1.5-0.3c0.2,1.1,0.5,1.9,0.9,2.5c0.4,0.5,1.2,0.8,2.2,0.8c0.8,0,1.4-0.2,1.8-0.6
			c0.4-0.4,0.6-0.9,0.6-1.4c0-0.6-0.2-1.1-0.5-1.4c-0.4-0.3-1.1-0.7-2.4-1.2c-1.2-0.5-2.1-0.9-2.7-1.4c-0.5-0.5-0.8-1.1-0.8-1.9
			c0-0.8,0.3-1.6,1-2.1c0.6-0.6,1.5-0.8,2.5-0.8c1,0,1.8,0.3,2.6,0.8c0.7,0.5,1.1,1.3,1.3,2.4l-1.4,0.3c-0.3-1.5-1.1-2.2-2.5-2.2
			c-0.7,0-1.2,0.2-1.5,0.5s-0.5,0.7-0.5,1.2c0,0.4,0.2,0.8,0.5,1.1c0.3,0.3,1.1,0.6,2.2,1c1.4,0.5,2.4,1,2.9,1.5s0.8,1.2,0.8,2.1
			c0,0.9-0.3,1.7-1,2.4s-1.6,1-2.8,1C754.7,528.9,753.2,527.5,752.9,524.7z"/>
		<path class="st9" d="M764.4,518.3v-1.2h6.9v1.2h-2.8v9.1h2.8v1.2h-6.9v-1.2h2.8v-9.1H764.4z"/>
		<path class="st9" d="M778.9,528.9c-1.3,0-2.4-0.5-3.2-1.5c-0.9-1-1.3-2.6-1.3-4.6c0-1.9,0.4-3.3,1.3-4.4c0.9-1,1.9-1.6,3.2-1.6
			c1,0,1.9,0.4,2.6,1.1c0.7,0.7,1.2,1.6,1.3,2.8l-1.4,0.2c-0.1-0.8-0.4-1.5-0.8-2c-0.4-0.5-1-0.8-1.7-0.8c-0.9,0-1.6,0.4-2.2,1.2
			c-0.6,0.8-0.8,1.9-0.8,3.4c0,1.6,0.3,2.8,0.8,3.6c0.6,0.8,1.3,1.2,2.2,1.2c0.8,0,1.5-0.3,2-0.9c0.5-0.6,0.7-1.4,0.7-2.5h-2.9V523
			h4.3v1.1c0,1.5-0.4,2.7-1.1,3.5C781,528.5,780.1,528.9,778.9,528.9z"/>
		<path class="st9" d="M785.6,528.7v-11.5h1.4l4.6,9.2h0v-9.2h1.3v11.5h-1.4l-4.6-9.2h0v9.2H785.6z"/>
	</g>
</g>
</svg>
