<?xml version="1.0" encoding="utf-8"?>
<!-- Generator: Adobe Illustrator 23.0.0, SVG Export Plug-In . SVG Version: 6.00 Build 0)  -->
<svg version="1.1" id="Layer_1" xmlns="http://www.w3.org/2000/svg" xmlns:xlink="http://www.w3.org/1999/xlink" x="0px" y="0px"
	 viewBox="0 0 1366 768" style="enable-background:new 0 0 1366 768;" xml:space="preserve">
<style type="text/css">
	.st0{fill:none;stroke:#2B2B2B;stroke-miterlimit:10;}
	.st1{fill:none;stroke:#000000;stroke-miterlimit:10;}
	.st2{fill:#FAFBFB;}
	.st3{enable-background:new    ;}
	.st4{fill:#595959;}
	.st5{fill:none;stroke:#5C5C5C;stroke-width:3;stroke-miterlimit:10;}
	.st6{fill:none;stroke:#FAFAFA;stroke-miterlimit:10;}
	.st7{fill:#595959;stroke:#595959;stroke-width:0.25;stroke-miterlimit:10;}
</style>
<path class="st0" d="M55.4,17.6"/>
<path class="st1" d="M334.3,247.4"/>
<path class="st1" d="M365.9,563.9"/>
<rect x="621" y="185.6" class="st2" width="62" height="135.2"/>
<rect x="622.8" y="417.4" class="st2" width="62" height="155.2"/>
<g>
	<g class="st3">
		<path class="st4" d="M676.3,209.8l-0.9,4l0,0c0.3-0.4,0.6-0.8,1-1.1s0.9-0.4,1.5-0.4c0.5,0,0.9,0.1,1.2,0.2
			c0.3,0.2,0.6,0.4,0.9,0.6c0.2,0.3,0.4,0.6,0.5,1s0.2,0.8,0.2,1.2c0,0.6-0.1,1.1-0.3,1.7s-0.4,1-0.7,1.5c-0.3,0.4-0.7,0.8-1.2,1.1
			s-1,0.4-1.6,0.4s-1.1-0.2-1.6-0.5c-0.4-0.3-0.7-0.8-0.8-1.4l0,0l-0.4,1.7h-0.8l2.1-10H676.3z M678.1,218.9c0.4-0.2,0.7-0.6,1-0.9
			s0.5-0.8,0.6-1.3s0.2-0.9,0.2-1.4c0-0.7-0.2-1.2-0.5-1.6c-0.3-0.4-0.9-0.6-1.6-0.6c-0.5,0-0.9,0.1-1.3,0.4s-0.7,0.6-0.9,1
			s-0.4,0.8-0.6,1.3c-0.1,0.5-0.2,0.9-0.2,1.3c0,0.3,0,0.6,0.1,0.9c0.1,0.3,0.2,0.5,0.4,0.7s0.4,0.4,0.6,0.5s0.5,0.2,0.9,0.2
			C677.2,219.3,677.7,219.1,678.1,218.9z"/>
		<path class="st4" d="M686.3,219.8l0.3-1.3l0,0c-0.3,0.4-0.6,0.8-1.1,1.1s-1,0.4-1.5,0.4c-0.3,0-0.6,0-0.9-0.1
			c-0.3-0.1-0.5-0.2-0.7-0.3c-0.2-0.2-0.3-0.4-0.5-0.6c-0.1-0.2-0.2-0.5-0.2-0.9c0-0.2,0-0.5,0.1-0.9l1-4.6h0.9l-1,4.7
			c0,0.1-0.1,0.2-0.1,0.4c0,0.1,0,0.2,0,0.4s0,0.4,0.1,0.6c0.1,0.2,0.2,0.3,0.3,0.4c0.1,0.1,0.3,0.2,0.5,0.2s0.4,0.1,0.6,0.1
			c0.3,0,0.6-0.1,0.9-0.2c0.3-0.1,0.6-0.3,0.8-0.6s0.5-0.6,0.7-0.9s0.3-0.8,0.4-1.2l0.8-3.7h0.9L687,220h-0.7V219.8z"/>
		<path class="st4" d="M690,218.3c0.1,0.2,0.3,0.4,0.5,0.6c0.2,0.1,0.4,0.2,0.7,0.3c0.2,0.1,0.5,0.1,0.8,0.1c0.2,0,0.4,0,0.6-0.1
			c0.2-0.1,0.4-0.1,0.6-0.2c0.2-0.1,0.3-0.2,0.4-0.4c0.1-0.2,0.2-0.4,0.2-0.6c0-0.2-0.1-0.4-0.2-0.6c-0.1-0.2-0.3-0.3-0.5-0.4
			s-0.4-0.2-0.6-0.3c-0.2-0.1-0.5-0.2-0.7-0.3s-0.5-0.2-0.7-0.3s-0.4-0.2-0.6-0.4c-0.2-0.2-0.3-0.3-0.4-0.5
			c-0.1-0.2-0.2-0.5-0.2-0.8c0-0.4,0.1-0.7,0.3-0.9s0.4-0.5,0.6-0.6c0.3-0.2,0.6-0.3,0.9-0.3c0.3-0.1,0.6-0.1,0.9-0.1
			c0.4,0,0.7,0,1.1,0.1s0.6,0.2,0.8,0.4s0.4,0.4,0.5,0.7s0.2,0.7,0.2,1.1h-0.9c0-0.3,0-0.5-0.1-0.7s-0.2-0.4-0.4-0.5
			s-0.3-0.2-0.6-0.3c-0.2-0.1-0.4-0.1-0.7-0.1c-0.2,0-0.4,0-0.6,0.1c-0.2,0-0.4,0.1-0.6,0.2c-0.2,0.1-0.3,0.2-0.4,0.4
			c-0.1,0.2-0.2,0.4-0.2,0.6c0,0.2,0,0.3,0.1,0.4c0.1,0.1,0.2,0.2,0.3,0.4c0.1,0.1,0.3,0.2,0.5,0.3s0.4,0.2,0.6,0.3
			c0.3,0.1,0.5,0.2,0.8,0.3s0.5,0.2,0.8,0.4c0.2,0.2,0.4,0.4,0.6,0.6c0.2,0.2,0.2,0.5,0.2,0.8c0,0.4-0.1,0.8-0.3,1
			c-0.2,0.3-0.4,0.5-0.7,0.7s-0.6,0.3-0.9,0.4s-0.7,0.1-1,0.1c-0.4,0-0.7,0-1-0.1s-0.6-0.2-0.9-0.4c-0.3-0.2-0.5-0.5-0.6-0.8
			c-0.2-0.3-0.2-0.7-0.2-1.2h0.9C689.9,217.8,689.9,218.1,690,218.3z"/>
		<path class="st4" d="M698.1,212.6l-1.6,7.2h-0.9l1.5-7.2H698.1z M698.7,209.8l-0.3,1.4h-0.9l0.3-1.4H698.7z"/>
		<path class="st4" d="M700.6,212.6l-0.3,1.3l0,0c0.3-0.4,0.6-0.8,1.1-1.1s1-0.4,1.5-0.4c0.3,0,0.6,0,0.9,0.1
			c0.3,0.1,0.5,0.2,0.7,0.3c0.2,0.2,0.3,0.4,0.5,0.6c0.1,0.2,0.2,0.5,0.2,0.9c0,0.2,0,0.5-0.1,0.9l-1,4.6h-0.9l1-4.7
			c0-0.1,0.1-0.2,0.1-0.4c0-0.1,0-0.2,0-0.4s0-0.4-0.1-0.6c-0.1-0.2-0.2-0.3-0.3-0.4s-0.3-0.2-0.5-0.2s-0.4-0.1-0.6-0.1
			c-0.3,0-0.6,0.1-0.9,0.2c-0.3,0.1-0.6,0.3-0.8,0.6c-0.3,0.3-0.5,0.6-0.7,0.9c-0.2,0.4-0.3,0.8-0.4,1.2l-0.8,3.7h-0.9l1.5-7.2h0.8
			V212.6z"/>
		<path class="st4" d="M707,217c0,0.3,0,0.6,0.1,0.9c0.1,0.3,0.2,0.5,0.4,0.7s0.4,0.4,0.7,0.5s0.6,0.2,0.9,0.2
			c0.6,0,1.1-0.2,1.5-0.5s0.7-0.8,0.9-1.3h0.9c-0.2,0.8-0.6,1.4-1.2,1.9c-0.5,0.4-1.3,0.6-2.1,0.6c-1,0-1.7-0.3-2.2-0.8
			s-0.8-1.3-0.8-2.2c0-0.6,0.1-1.1,0.3-1.7c0.2-0.5,0.4-1,0.8-1.5c0.3-0.4,0.8-0.8,1.2-1s1-0.4,1.7-0.4c0.4,0,0.8,0.1,1.2,0.2
			c0.3,0.1,0.6,0.3,0.9,0.6c0.2,0.2,0.4,0.5,0.5,0.9c0.1,0.3,0.2,0.7,0.2,1.1c0,0.2,0,0.4,0,0.6c0,0.2,0,0.4-0.1,0.6H707
			C707,216.6,707,216.8,707,217z M711.9,215.4c0-0.1,0-0.2,0-0.3c0-0.6-0.2-1.1-0.5-1.5c-0.4-0.4-0.8-0.5-1.5-0.5
			c-0.4,0-0.7,0.1-1,0.2c-0.3,0.1-0.6,0.3-0.8,0.6c-0.2,0.2-0.4,0.5-0.6,0.8c-0.2,0.3-0.3,0.6-0.4,1h4.7
			C711.9,215.6,711.9,215.5,711.9,215.4z"/>
		<path class="st4" d="M714.3,218.3c0.1,0.2,0.3,0.4,0.5,0.6c0.2,0.1,0.4,0.2,0.7,0.3c0.2,0.1,0.5,0.1,0.8,0.1c0.2,0,0.4,0,0.6-0.1
			c0.2-0.1,0.4-0.1,0.6-0.2c0.2-0.1,0.3-0.2,0.4-0.4c0.1-0.2,0.2-0.4,0.2-0.6c0-0.2-0.1-0.4-0.2-0.6c-0.1-0.2-0.3-0.3-0.5-0.4
			s-0.4-0.2-0.6-0.3c-0.2-0.1-0.5-0.2-0.7-0.3s-0.5-0.2-0.7-0.3s-0.4-0.2-0.6-0.4c-0.2-0.2-0.3-0.3-0.4-0.5
			c-0.1-0.2-0.2-0.5-0.2-0.8c0-0.4,0.1-0.7,0.3-0.9s0.4-0.5,0.6-0.6c0.3-0.2,0.6-0.3,0.9-0.3c0.3-0.1,0.6-0.1,0.9-0.1
			c0.4,0,0.7,0,1.1,0.1s0.6,0.2,0.8,0.4s0.4,0.4,0.5,0.7s0.2,0.7,0.2,1.1h-0.9c0-0.3,0-0.5-0.1-0.7s-0.2-0.4-0.4-0.5
			s-0.3-0.2-0.6-0.3c-0.2-0.1-0.4-0.1-0.7-0.1c-0.2,0-0.4,0-0.6,0.1c-0.2,0-0.4,0.1-0.6,0.2c-0.2,0.1-0.3,0.2-0.4,0.4
			c-0.1,0.2-0.2,0.4-0.2,0.6c0,0.2,0,0.3,0.1,0.4c0.1,0.1,0.2,0.2,0.3,0.4c0.1,0.1,0.3,0.2,0.5,0.3s0.4,0.2,0.6,0.3
			c0.3,0.1,0.5,0.2,0.8,0.3s0.5,0.2,0.8,0.4c0.2,0.2,0.4,0.4,0.6,0.6c0.2,0.2,0.2,0.5,0.2,0.8c0,0.4-0.1,0.8-0.3,1
			c-0.2,0.3-0.4,0.5-0.7,0.7s-0.6,0.3-0.9,0.4s-0.7,0.1-1,0.1c-0.4,0-0.7,0-1-0.1s-0.6-0.2-0.9-0.4c-0.3-0.2-0.5-0.5-0.6-0.8
			c-0.2-0.3-0.2-0.7-0.2-1.2h0.9C714.1,217.8,714.1,218.1,714.3,218.3z"/>
		<path class="st4" d="M721,218.3c0.1,0.2,0.3,0.4,0.5,0.6c0.2,0.1,0.4,0.2,0.7,0.3c0.2,0.1,0.5,0.1,0.8,0.1c0.2,0,0.4,0,0.6-0.1
			c0.2-0.1,0.4-0.1,0.6-0.2c0.2-0.1,0.3-0.2,0.4-0.4c0.1-0.2,0.2-0.4,0.2-0.6c0-0.2-0.1-0.4-0.2-0.6c-0.1-0.2-0.3-0.3-0.5-0.4
			s-0.4-0.2-0.6-0.3c-0.2-0.1-0.5-0.2-0.7-0.3s-0.5-0.2-0.7-0.3s-0.4-0.2-0.6-0.4c-0.2-0.2-0.3-0.3-0.4-0.5
			c-0.1-0.2-0.2-0.5-0.2-0.8c0-0.4,0.1-0.7,0.3-0.9s0.4-0.5,0.6-0.6c0.3-0.2,0.6-0.3,0.9-0.3c0.3-0.1,0.6-0.1,0.9-0.1
			c0.4,0,0.7,0,1.1,0.1s0.6,0.2,0.8,0.4s0.4,0.4,0.5,0.7s0.2,0.7,0.2,1.1h-0.9c0-0.3,0-0.5-0.1-0.7s-0.2-0.4-0.4-0.5
			s-0.3-0.2-0.6-0.3c-0.2-0.1-0.4-0.1-0.7-0.1c-0.2,0-0.4,0-0.6,0.1c-0.2,0-0.4,0.1-0.6,0.2c-0.2,0.1-0.3,0.2-0.4,0.4
			c-0.1,0.2-0.2,0.4-0.2,0.6c0,0.2,0,0.3,0.1,0.4c0.1,0.1,0.2,0.2,0.3,0.4c0.1,0.1,0.3,0.2,0.5,0.3s0.4,0.2,0.6,0.3
			c0.3,0.1,0.5,0.2,0.8,0.3s0.5,0.2,0.8,0.4c0.2,0.2,0.4,0.4,0.6,0.6c0.2,0.2,0.2,0.5,0.2,0.8c0,0.4-0.1,0.8-0.3,1
			c-0.2,0.3-0.4,0.5-0.7,0.7s-0.6,0.3-0.9,0.4s-0.7,0.1-1,0.1c-0.4,0-0.7,0-1-0.1s-0.6-0.2-0.9-0.4c-0.3-0.2-0.5-0.5-0.6-0.8
			c-0.2-0.3-0.2-0.7-0.2-1.2h0.9C720.8,217.8,720.9,218.1,721,218.3z"/>
		<path class="st4" d="M738,216.7c-0.2,0.4-0.4,0.8-0.8,1.3l1.2,1.8h-1l-0.8-1.2c-0.4,0.4-0.8,0.8-1.3,1s-1,0.3-1.6,0.3
			c-0.4,0-0.8-0.1-1.1-0.2c-0.3-0.1-0.6-0.3-0.9-0.5c-0.2-0.2-0.4-0.5-0.6-0.8c-0.1-0.3-0.2-0.7-0.2-1.1c0-0.4,0.1-0.8,0.3-1.1
			s0.4-0.6,0.7-0.8s0.6-0.5,0.9-0.7c0.4-0.2,0.7-0.4,1.1-0.5c-0.1-0.2-0.2-0.4-0.4-0.5c-0.1-0.2-0.2-0.4-0.3-0.5
			c-0.1-0.2-0.2-0.4-0.2-0.6c-0.1-0.2-0.1-0.4-0.1-0.7s0.1-0.6,0.2-0.9c0.1-0.3,0.3-0.5,0.5-0.7s0.5-0.3,0.8-0.4
			c0.3-0.1,0.6-0.2,0.9-0.2c0.3,0,0.6,0,0.8,0.1c0.3,0.1,0.5,0.2,0.7,0.4s0.4,0.3,0.5,0.6c0.1,0.2,0.2,0.5,0.2,0.8
			c0,0.4-0.1,0.7-0.2,1c-0.2,0.3-0.4,0.5-0.6,0.8c-0.2,0.2-0.5,0.4-0.8,0.6c-0.3,0.2-0.6,0.4-0.9,0.5l1.8,2.8
			c0.2-0.2,0.4-0.5,0.5-0.9c0.1-0.3,0.2-0.7,0.3-1h0.9C738.3,215.9,738.1,216.3,738,216.7z M733.4,215.3c-0.3,0.2-0.6,0.3-0.8,0.5
			s-0.4,0.4-0.6,0.7s-0.2,0.6-0.2,0.9c0,0.2,0,0.5,0.1,0.7s0.2,0.4,0.4,0.6s0.4,0.3,0.6,0.4c0.2,0.1,0.5,0.1,0.7,0.1
			c0.5,0,1-0.1,1.4-0.3s0.8-0.5,1.1-1l-2-3.1C734,215,733.7,215.1,733.4,215.3z M735.2,213.5c0.2-0.1,0.5-0.3,0.7-0.5
			s0.4-0.4,0.5-0.6s0.2-0.5,0.2-0.7c0-0.4-0.1-0.7-0.4-0.9c-0.3-0.2-0.6-0.3-1-0.3c-0.2,0-0.4,0-0.6,0.1c-0.2,0.1-0.3,0.2-0.5,0.3
			s-0.3,0.3-0.3,0.4c-0.1,0.2-0.1,0.4-0.1,0.6c0,0.2,0,0.3,0.1,0.5s0.1,0.3,0.2,0.5s0.2,0.3,0.3,0.5s0.2,0.3,0.3,0.4
			C734.7,213.8,735,213.7,735.2,213.5z"/>
		<path class="st4" d="M675.7,229.4l-0.3,1.3l0,0c0.3-0.5,0.7-0.8,1.1-1.1c0.4-0.3,0.9-0.4,1.6-0.4c0.5,0,0.9,0.1,1.2,0.2
			c0.3,0.1,0.6,0.3,0.9,0.6c0.2,0.3,0.4,0.6,0.5,0.9c0.1,0.4,0.2,0.8,0.2,1.2c0,0.6-0.1,1.1-0.3,1.7c-0.2,0.6-0.4,1.1-0.8,1.5
			c-0.3,0.4-0.8,0.8-1.3,1.1s-1,0.4-1.6,0.4c-0.3,0-0.6,0-0.8-0.1c-0.3-0.1-0.5-0.2-0.7-0.3s-0.4-0.3-0.5-0.5s-0.2-0.5-0.3-0.7l0,0
			l-0.9,4.1h-0.9l2.1-9.9H675.7z M676.6,230.3c-0.4,0.3-0.7,0.6-1,1s-0.5,0.8-0.6,1.3s-0.2,0.9-0.2,1.4c0,0.6,0.2,1.2,0.5,1.5
			c0.4,0.4,0.9,0.6,1.5,0.6c0.5,0,1-0.1,1.3-0.4c0.4-0.3,0.7-0.6,1-1s0.5-0.8,0.6-1.3s0.2-0.9,0.2-1.4c0-0.6-0.2-1.1-0.5-1.5
			s-0.8-0.6-1.5-0.6C677.5,229.9,677,230,676.6,230.3z"/>
		<path class="st4" d="M683.7,229.4l-0.4,1.7l0,0c0.3-0.5,0.6-0.9,1-1.3c0.4-0.3,0.9-0.5,1.6-0.5h0.2h0.1h0.1l-0.2,0.9
			c-0.1,0-0.2,0-0.3,0s-0.2,0-0.3,0c-0.4,0-0.7,0.1-1,0.2c-0.3,0.1-0.6,0.3-0.8,0.6c-0.2,0.2-0.4,0.5-0.6,0.8
			c-0.1,0.3-0.3,0.6-0.3,1l-0.8,3.8h-0.9l1.5-7.2H683.7z"/>
		<path class="st4" d="M691,229.3c0.4,0.1,0.7,0.3,0.9,0.6s0.5,0.5,0.6,0.9s0.2,0.7,0.2,1.2c0,0.6-0.1,1.2-0.3,1.8s-0.4,1.1-0.8,1.5
			c-0.3,0.4-0.8,0.8-1.3,1.1s-1.1,0.4-1.8,0.4c-0.9,0-1.7-0.3-2.2-0.8s-0.7-1.3-0.7-2.2c0-0.6,0.1-1.2,0.3-1.7s0.4-1.1,0.8-1.5
			s0.8-0.8,1.3-1c0.5-0.3,1.1-0.4,1.7-0.4C690.3,229.1,690.7,229.2,691,229.3z M690.2,235.7c0.4-0.2,0.7-0.6,0.9-0.9
			c0.2-0.4,0.4-0.8,0.6-1.3c0.1-0.5,0.2-0.9,0.2-1.3c0-0.7-0.2-1.2-0.5-1.6c-0.4-0.4-0.9-0.6-1.6-0.6c-0.5,0-0.9,0.1-1.3,0.4
			c-0.4,0.2-0.7,0.5-0.9,0.9s-0.4,0.8-0.6,1.2c-0.1,0.5-0.2,0.9-0.2,1.3c0,0.7,0.2,1.3,0.5,1.7c0.4,0.4,0.9,0.7,1.6,0.7
			C689.4,236.1,689.8,235.9,690.2,235.7z"/>
		<path class="st4" d="M698.7,236.6l0.3-1.3l0,0c-0.3,0.5-0.7,0.8-1.1,1.1c-0.4,0.3-0.9,0.4-1.6,0.4c-0.9,0-1.6-0.3-2.1-0.8
			s-0.7-1.2-0.7-2.1c0-0.6,0.1-1.1,0.3-1.7s0.4-1.1,0.8-1.5c0.3-0.4,0.8-0.8,1.3-1.1s1-0.4,1.6-0.4s1.1,0.1,1.5,0.4
			c0.4,0.2,0.7,0.6,0.9,1.2l0,0l0.9-4.1h0.9l-2.2,10L698.7,236.6L698.7,236.6z M697.8,235.7c0.4-0.3,0.7-0.6,1-1s0.5-0.8,0.6-1.3
			s0.2-0.9,0.2-1.4c0-0.6-0.2-1.2-0.5-1.5c-0.4-0.4-0.9-0.6-1.5-0.6c-0.5,0-1,0.1-1.3,0.4c-0.4,0.3-0.7,0.6-1,1s-0.5,0.8-0.6,1.3
			s-0.2,0.9-0.2,1.4c0,0.6,0.2,1.1,0.5,1.5s0.8,0.6,1.5,0.6C697,236.1,697.4,235.9,697.8,235.7z"/>
		<path class="st4" d="M706.3,236.6l0.3-1.3l0,0c-0.3,0.4-0.6,0.8-1.1,1.1s-1,0.4-1.5,0.4c-0.3,0-0.6,0-0.9-0.1
			c-0.3-0.1-0.5-0.2-0.7-0.3c-0.2-0.2-0.3-0.4-0.5-0.6c-0.1-0.2-0.2-0.5-0.2-0.9c0-0.2,0-0.5,0.1-0.9l1-4.6h0.9l-1,4.7
			c0,0.1-0.1,0.2-0.1,0.4c0,0.1,0,0.2,0,0.4s0,0.4,0.1,0.6c0.1,0.2,0.2,0.3,0.3,0.4c0.1,0.1,0.3,0.2,0.5,0.2s0.4,0.1,0.6,0.1
			c0.3,0,0.6-0.1,0.9-0.2c0.3-0.1,0.6-0.3,0.8-0.6s0.5-0.6,0.7-0.9s0.3-0.8,0.4-1.2l0.8-3.7h0.9l-1.6,7.2h-0.7V236.6z"/>
		<path class="st4" d="M714.9,230.9c-0.1-0.2-0.2-0.4-0.4-0.5s-0.3-0.3-0.6-0.3c-0.2-0.1-0.5-0.1-0.7-0.1c-0.5,0-1,0.1-1.4,0.4
			c-0.4,0.2-0.7,0.5-1,0.9s-0.5,0.8-0.6,1.3s-0.2,0.9-0.2,1.4c0,0.3,0,0.6,0.1,0.9c0.1,0.3,0.2,0.5,0.4,0.7s0.4,0.4,0.6,0.5
			c0.3,0.1,0.6,0.2,0.9,0.2c0.6,0,1.1-0.2,1.5-0.5s0.7-0.8,0.9-1.3h0.9c-0.3,0.8-0.7,1.5-1.2,1.9c-0.6,0.4-1.3,0.6-2.2,0.6
			s-1.6-0.3-2.1-0.8s-0.7-1.3-0.7-2.2c0-0.6,0.1-1.1,0.3-1.7s0.4-1.1,0.8-1.5c0.3-0.4,0.7-0.8,1.2-1.1s1-0.4,1.7-0.4
			c0.4,0,0.8,0,1.1,0.1s0.6,0.2,0.9,0.5c0.2,0.2,0.4,0.5,0.6,0.8s0.2,0.7,0.2,1.1H715C715,231.3,715,231.1,714.9,230.9z"/>
		<path class="st4" d="M718.3,229.4l0.5-2.2h0.9l-0.5,2.2h1.4l-0.1,0.7H719l-1,4.6c0,0.2-0.1,0.3-0.1,0.4c0,0.1,0,0.2,0,0.3
			s0,0.2,0.1,0.4c0.1,0.1,0.2,0.2,0.4,0.2c0.3,0,0.7,0,1-0.1l-0.2,0.8c-0.2,0-0.3,0-0.5,0c-0.1,0-0.3,0-0.4,0c-0.2,0-0.3,0-0.5,0
			s-0.3-0.1-0.4-0.1c-0.1-0.1-0.2-0.2-0.3-0.3s-0.1-0.3-0.1-0.5c0-0.1,0-0.2,0-0.3s0-0.3,0.1-0.4l1-4.8h-1.3l0.2-0.7h1.3V229.4z"/>
		<path class="st4" d="M729.7,236.6l0.3-1.3l0,0c-0.3,0.5-0.7,0.8-1.1,1.1c-0.4,0.3-0.9,0.4-1.6,0.4c-0.9,0-1.6-0.3-2.1-0.8
			s-0.7-1.2-0.7-2.1c0-0.6,0.1-1.1,0.3-1.7s0.4-1.1,0.8-1.5c0.3-0.4,0.8-0.8,1.3-1.1s1-0.4,1.6-0.4s1.1,0.1,1.5,0.4
			c0.4,0.2,0.7,0.6,0.9,1.2l0,0l0.9-4.1h0.9l-2.2,10L729.7,236.6L729.7,236.6z M728.8,235.7c0.4-0.3,0.7-0.6,1-1s0.5-0.8,0.6-1.3
			s0.2-0.9,0.2-1.4c0-0.6-0.2-1.2-0.5-1.5c-0.4-0.4-0.9-0.6-1.5-0.6c-0.5,0-1,0.1-1.3,0.4c-0.4,0.3-0.7,0.6-1,1s-0.5,0.8-0.6,1.3
			s-0.2,0.9-0.2,1.4c0,0.6,0.2,1.1,0.5,1.5s0.8,0.6,1.5,0.6C728,236.1,728.4,235.9,728.8,235.7z"/>
		<path class="st4" d="M733.6,233.8c0,0.3,0,0.6,0.1,0.9c0.1,0.3,0.2,0.5,0.4,0.7s0.4,0.4,0.7,0.5s0.6,0.2,0.9,0.2
			c0.6,0,1.1-0.2,1.5-0.5s0.7-0.8,0.9-1.3h0.9c-0.2,0.8-0.6,1.4-1.2,1.9c-0.5,0.4-1.3,0.6-2.1,0.6c-1,0-1.7-0.3-2.2-0.8
			s-0.8-1.3-0.8-2.2c0-0.6,0.1-1.1,0.3-1.7c0.2-0.5,0.4-1,0.8-1.5c0.3-0.4,0.8-0.8,1.2-1s1-0.4,1.7-0.4c0.4,0,0.8,0.1,1.2,0.2
			c0.3,0.1,0.6,0.3,0.9,0.6c0.2,0.2,0.4,0.5,0.5,0.9c0.1,0.3,0.2,0.7,0.2,1.1c0,0.2,0,0.4,0,0.6c0,0.2,0,0.4-0.1,0.6h-5.7
			C733.6,233.4,733.6,233.6,733.6,233.8z M738.5,232.2c0-0.1,0-0.2,0-0.3c0-0.6-0.2-1.1-0.5-1.5c-0.4-0.4-0.8-0.5-1.5-0.5
			c-0.4,0-0.7,0.1-1,0.2c-0.3,0.1-0.6,0.3-0.8,0.6c-0.2,0.2-0.4,0.5-0.6,0.8c-0.2,0.3-0.3,0.6-0.4,1h4.7
			C738.5,232.4,738.5,232.3,738.5,232.2z"/>
		<path class="st4" d="M740.8,235.1c0.1,0.2,0.3,0.4,0.5,0.6c0.2,0.1,0.4,0.2,0.7,0.3c0.2,0.1,0.5,0.1,0.8,0.1c0.2,0,0.4,0,0.6-0.1
			c0.2-0.1,0.4-0.1,0.6-0.2c0.2-0.1,0.3-0.2,0.4-0.4c0.1-0.2,0.2-0.4,0.2-0.6c0-0.2-0.1-0.4-0.2-0.6c-0.1-0.2-0.3-0.3-0.5-0.4
			s-0.4-0.2-0.6-0.3c-0.2-0.1-0.5-0.2-0.7-0.3s-0.5-0.2-0.7-0.3s-0.4-0.2-0.6-0.4c-0.2-0.2-0.3-0.3-0.4-0.5
			c-0.1-0.2-0.2-0.5-0.2-0.8c0-0.4,0.1-0.7,0.3-0.9s0.4-0.5,0.6-0.6c0.3-0.2,0.6-0.3,0.9-0.3c0.3-0.1,0.6-0.1,0.9-0.1
			c0.4,0,0.7,0,1.1,0.1s0.6,0.2,0.8,0.4s0.4,0.4,0.5,0.7s0.2,0.7,0.2,1.1h-1c0-0.3,0-0.5-0.1-0.7s-0.2-0.4-0.4-0.5s-0.3-0.2-0.6-0.3
			c-0.2-0.1-0.4-0.1-0.7-0.1c-0.2,0-0.4,0-0.6,0.1c-0.2,0-0.4,0.1-0.6,0.2c-0.2,0.1-0.3,0.2-0.4,0.4c-0.1,0.2-0.2,0.4-0.2,0.6
			c0,0.2,0,0.3,0.1,0.4c0.1,0.1,0.2,0.2,0.3,0.4c0.1,0.1,0.3,0.2,0.5,0.3s0.4,0.2,0.6,0.3c0.3,0.1,0.5,0.2,0.8,0.3s0.5,0.2,0.8,0.4
			c0.2,0.2,0.4,0.4,0.6,0.6c0.2,0.2,0.2,0.5,0.2,0.8c0,0.4-0.1,0.8-0.3,1c-0.2,0.3-0.4,0.5-0.7,0.7s-0.6,0.3-0.9,0.4s-0.7,0.1-1,0.1
			c-0.4,0-0.7,0-1-0.1s-0.6-0.2-0.9-0.4c-0.3-0.2-0.5-0.5-0.6-0.8c-0.2-0.3-0.2-0.7-0.2-1.2h0.9
			C740.7,234.6,740.7,234.9,740.8,235.1z"/>
		<path class="st4" d="M748.8,229.4l-1.6,7.2h-0.9l1.5-7.2H748.8z M749.4,226.6l-0.3,1.4h-0.9l0.3-1.4H749.4z"/>
		<path class="st4" d="M754.8,237.5c-0.2,0.5-0.4,0.8-0.7,1.1s-0.6,0.5-1,0.7s-0.9,0.2-1.4,0.2c-0.4,0-0.7,0-1.1-0.1
			c-0.3-0.1-0.6-0.2-0.9-0.4c-0.3-0.2-0.5-0.4-0.6-0.7s-0.2-0.7-0.2-1.1h0.9c0,0.3,0.1,0.6,0.2,0.8c0.1,0.2,0.3,0.4,0.5,0.5
			s0.4,0.2,0.6,0.3c0.2,0.1,0.5,0.1,0.8,0.1c0.4,0,0.7-0.1,1-0.2c0.3-0.1,0.5-0.3,0.7-0.5s0.4-0.4,0.5-0.7s0.2-0.5,0.3-0.8
			s0.2-0.5,0.2-0.8c0.1-0.3,0.1-0.5,0.2-0.7l0,0c-0.2,0.4-0.6,0.8-1.1,1s-0.9,0.3-1.4,0.3c-0.4,0-0.8-0.1-1.2-0.2
			c-0.3-0.1-0.6-0.4-0.8-0.6c-0.2-0.3-0.4-0.6-0.5-0.9c-0.1-0.4-0.2-0.7-0.2-1.2s0.1-1.1,0.3-1.6s0.4-1,0.7-1.4s0.7-0.7,1.2-1
			s1-0.4,1.6-0.4c0.3,0,0.5,0,0.8,0.1s0.5,0.2,0.7,0.3s0.4,0.3,0.6,0.5c0.1,0.2,0.2,0.5,0.3,0.7l0,0l0.3-1.5h0.8l-1.4,6.5
			C755.2,236.5,755,237,754.8,237.5z M750.4,234.3c0.1,0.3,0.2,0.5,0.4,0.7s0.4,0.4,0.6,0.5c0.2,0.1,0.5,0.2,0.9,0.2
			c0.5,0,0.9-0.1,1.2-0.3c0.4-0.2,0.7-0.5,0.9-0.9s0.4-0.7,0.6-1.2c0.1-0.4,0.2-0.8,0.2-1.2c0-0.3,0-0.6-0.1-0.9
			c-0.1-0.3-0.2-0.5-0.3-0.7c-0.2-0.2-0.4-0.4-0.6-0.5c-0.3-0.1-0.6-0.2-0.9-0.2c-0.5,0-0.9,0.1-1.2,0.3c-0.4,0.2-0.7,0.5-0.9,0.8
			s-0.4,0.7-0.6,1.1c-0.1,0.4-0.2,0.8-0.2,1.2C750.3,233.7,750.4,234,750.4,234.3z"/>
		<path class="st4" d="M759.2,229.4l-0.3,1.3l0,0c0.3-0.4,0.6-0.8,1.1-1.1s1-0.4,1.5-0.4c0.3,0,0.6,0,0.9,0.1
			c0.3,0.1,0.5,0.2,0.7,0.3c0.2,0.2,0.3,0.4,0.5,0.6c0.1,0.2,0.2,0.5,0.2,0.9c0,0.2,0,0.5-0.1,0.9l-1,4.6h-0.9l1-4.7
			c0-0.1,0.1-0.2,0.1-0.4c0-0.1,0-0.2,0-0.4s0-0.4-0.1-0.6c-0.1-0.2-0.2-0.3-0.3-0.4s-0.3-0.2-0.5-0.2s-0.4-0.1-0.6-0.1
			c-0.3,0-0.6,0.1-0.9,0.2c-0.3,0.1-0.6,0.3-0.8,0.6c-0.3,0.3-0.5,0.6-0.7,0.9c-0.2,0.4-0.3,0.8-0.4,1.2l-0.8,3.7h-0.9l1.5-7.2h0.8
			V229.4z"/>
	</g>
</g>
<line class="st5" x1="653.8" y1="206.7" x2="653.8" y2="300.6"/>
<line class="st5" x1="651.8" y1="447.3" x2="652.2" y2="543.8"/>
<rect class="st6" width="1366" height="768"/>
<g>
	<path class="st7" d="M528.8,454.2h0.6l-1.6,7.7h-0.6L528.8,454.2z M529.5,451.2h0.6l-0.3,1.5h-0.6L529.5,451.2z"/>
	<path class="st7" d="M531.4,454.2h0.6l-0.4,1.7h0c0.3-0.6,0.8-1,1.3-1.4c0.5-0.3,1.1-0.5,1.8-0.5c0.3,0,0.6,0,0.8,0.1
		c0.3,0.1,0.5,0.2,0.7,0.4c0.2,0.2,0.4,0.4,0.5,0.7c0.1,0.3,0.2,0.6,0.2,0.9c0,0.1,0,0.2,0,0.3c0,0.1,0,0.3-0.1,0.4
		c0,0.1-0.1,0.3-0.1,0.4c0,0.1,0,0.2-0.1,0.3l-0.9,4.2h-0.6l0.9-4.2c0-0.1,0-0.2,0.1-0.3s0.1-0.3,0.1-0.4s0-0.3,0.1-0.4
		c0-0.2,0-0.3,0-0.4c0-0.5-0.2-0.9-0.5-1.2c-0.3-0.3-0.8-0.5-1.3-0.5c-0.5,0-0.9,0.1-1.3,0.3c-0.4,0.2-0.7,0.5-1,0.9
		c-0.3,0.4-0.5,0.8-0.7,1.2c-0.2,0.4-0.3,0.9-0.4,1.3l-0.8,3.6h-0.6L531.4,454.2z"/>
	<path class="st7" d="M538,454.2h1.4l0.5-2.4h0.6l-0.5,2.4h1.6l-0.1,0.5h-1.6l-1.2,5.4c0,0,0,0.1,0,0.1c0,0.1,0,0.1,0,0.2
		c0,0.1,0,0.1,0,0.2c0,0.1,0,0.1,0,0.2c0,0.2,0.1,0.4,0.2,0.5c0.1,0.1,0.4,0.2,0.7,0.2c0.3,0,0.6,0,0.9,0l-0.1,0.5
		c-0.1,0-0.2,0-0.4,0s-0.3,0-0.5,0c-0.5,0-0.8-0.1-1-0.3c-0.2-0.2-0.3-0.5-0.3-0.9c0-0.1,0-0.2,0-0.4c0-0.1,0.1-0.3,0.1-0.4l1.2-5.3
		h-1.5L538,454.2z"/>
	<path class="st7" d="M542.1,458.1c0,0.1,0,0.3-0.1,0.4c0,0.1,0,0.3,0,0.4c0,0.4,0.1,0.7,0.2,1c0.1,0.3,0.3,0.6,0.5,0.8
		c0.2,0.2,0.5,0.4,0.8,0.6c0.3,0.1,0.7,0.2,1,0.2c0.4,0,0.7-0.1,1-0.2c0.3-0.1,0.6-0.3,0.9-0.5s0.5-0.4,0.6-0.7
		c0.2-0.3,0.3-0.6,0.4-0.9h0.6c-0.1,0.4-0.3,0.8-0.5,1.1c-0.2,0.3-0.5,0.6-0.8,0.9s-0.6,0.4-1,0.6c-0.4,0.1-0.8,0.2-1.3,0.2
		c-0.5,0-0.9-0.1-1.3-0.2c-0.4-0.2-0.7-0.4-0.9-0.7c-0.2-0.3-0.4-0.6-0.6-1c-0.1-0.4-0.2-0.8-0.2-1.2c0-0.7,0.1-1.4,0.3-2
		c0.2-0.6,0.5-1.1,0.8-1.6c0.3-0.4,0.8-0.8,1.3-1.1c0.5-0.3,1.1-0.4,1.7-0.4c0.4,0,0.8,0.1,1.2,0.2c0.4,0.2,0.6,0.4,0.9,0.6
		c0.2,0.3,0.4,0.6,0.5,0.9c0.1,0.4,0.2,0.8,0.2,1.2c0,0.2,0,0.4,0,0.6c0,0.2,0,0.4-0.1,0.6H542.1z M547.8,457.6c0-0.1,0-0.2,0.1-0.3
		c0-0.1,0-0.2,0-0.3c0-0.3,0-0.6-0.1-0.9c-0.1-0.3-0.2-0.6-0.4-0.8s-0.4-0.4-0.7-0.5s-0.7-0.2-1-0.2c-0.5,0-0.9,0.1-1.2,0.3
		c-0.4,0.2-0.7,0.4-1,0.7c-0.3,0.3-0.5,0.6-0.7,1c-0.2,0.4-0.3,0.8-0.4,1.2H547.8z"/>
	<path class="st7" d="M550.5,454.2h0.6l-0.4,1.8h0c0.3-0.6,0.7-1.1,1.1-1.4c0.5-0.4,1.1-0.6,1.8-0.6c0.1,0,0.2,0,0.2,0s0.2,0,0.2,0
		l-0.2,0.6c-0.1,0-0.3-0.1-0.5-0.1c-0.6,0-1,0.1-1.4,0.4c-0.4,0.3-0.7,0.6-1,1.1c-0.3,0.4-0.5,0.9-0.6,1.4c-0.2,0.5-0.3,0.9-0.4,1.3
		l-0.7,3.1h-0.6L550.5,454.2z"/>
	<path class="st7" d="M553.9,456.4c0.2-0.9,0.6-1.5,1.2-1.8c0.6-0.4,1.3-0.6,2.2-0.6c0.2,0,0.4,0,0.7,0.1s0.5,0.1,0.8,0.3
		c0.2,0.1,0.5,0.3,0.6,0.6c0.2,0.2,0.3,0.5,0.3,0.9c0,0.2,0,0.4-0.1,0.7c-0.1,0.3-0.1,0.5-0.2,0.8c-0.1,0.3-0.1,0.5-0.2,0.7
		c-0.1,0.2-0.1,0.4-0.1,0.4c-0.1,0.2-0.1,0.4-0.2,0.7s-0.1,0.5-0.2,0.7c-0.1,0.2-0.1,0.4-0.1,0.6c0,0.2-0.1,0.3-0.1,0.5
		c0,0.1,0,0.3,0.1,0.4s0.2,0.1,0.3,0.1c0.1,0,0.2,0,0.3,0c0.1,0,0.2,0,0.3-0.1l-0.1,0.5c-0.1,0-0.2,0-0.3,0.1c-0.1,0-0.2,0-0.3,0
		c-0.3,0-0.5-0.1-0.6-0.3c-0.1-0.2-0.2-0.4-0.2-0.5c0-0.1,0-0.2,0-0.3c0-0.1,0.1-0.2,0.1-0.3h0c-0.1,0.3-0.3,0.5-0.6,0.7
		c-0.2,0.2-0.5,0.4-0.7,0.5c-0.3,0.1-0.5,0.2-0.8,0.3c-0.3,0.1-0.5,0.1-0.8,0.1c-0.3,0-0.6,0-0.9-0.1s-0.5-0.2-0.8-0.4
		c-0.2-0.2-0.4-0.4-0.5-0.6s-0.2-0.6-0.2-1c0-0.5,0.1-0.9,0.3-1.2s0.4-0.5,0.8-0.7s0.7-0.3,1.1-0.4c0.4-0.1,0.8-0.1,1.3-0.1
		c0.5,0,1-0.1,1.4-0.1c0.4-0.1,0.6-0.1,0.9-0.3c0.2-0.1,0.4-0.3,0.5-0.5c0.1-0.2,0.1-0.4,0.1-0.7c0-0.5-0.1-0.9-0.4-1.1
		c-0.3-0.3-0.8-0.4-1.5-0.4c-0.7,0-1.3,0.2-1.7,0.5c-0.4,0.3-0.7,0.8-0.9,1.4H553.9z M558.8,457.6L558.8,457.6
		c-0.1,0.1-0.3,0.2-0.5,0.3c-0.2,0.1-0.4,0.1-0.6,0.2s-0.5,0.1-0.7,0.1c-0.2,0-0.4,0-0.6,0c-0.4,0-0.7,0-1.1,0.1
		c-0.4,0-0.7,0.1-0.9,0.3c-0.3,0.1-0.5,0.3-0.7,0.6c-0.2,0.2-0.3,0.6-0.3,1c0,0.3,0.1,0.5,0.2,0.7c0.1,0.2,0.3,0.4,0.4,0.5
		c0.2,0.1,0.4,0.2,0.6,0.3s0.5,0.1,0.7,0.1c0.5,0,0.9-0.1,1.2-0.2c0.3-0.2,0.6-0.4,0.9-0.7c0.2-0.3,0.5-0.6,0.6-1
		c0.2-0.4,0.3-0.7,0.4-1.1L558.8,457.6z"/>
	<path class="st7" d="M567.4,459.4c-0.3,0.8-0.7,1.4-1.3,1.9s-1.3,0.8-2.2,0.8c-0.5,0-1-0.1-1.4-0.2s-0.7-0.4-0.9-0.7
		c-0.2-0.3-0.4-0.6-0.5-1c-0.1-0.4-0.2-0.8-0.2-1.3c0-0.6,0.1-1.2,0.3-1.8c0.2-0.6,0.5-1.1,0.8-1.5c0.4-0.5,0.8-0.8,1.3-1.1
		c0.5-0.3,1.1-0.4,1.7-0.4c0.4,0,0.8,0.1,1.1,0.2c0.3,0.1,0.6,0.3,0.9,0.5c0.2,0.2,0.4,0.5,0.6,0.8c0.1,0.3,0.2,0.7,0.1,1.1h-0.6
		c0-0.7-0.2-1.2-0.6-1.5c-0.4-0.4-0.9-0.5-1.6-0.5c-0.6,0-1.1,0.1-1.5,0.4c-0.4,0.3-0.8,0.6-1.1,1c-0.3,0.4-0.5,0.9-0.7,1.4
		c-0.2,0.5-0.2,1-0.2,1.5c0,0.4,0,0.7,0.1,1.1s0.2,0.6,0.4,0.9c0.2,0.3,0.4,0.5,0.7,0.6c0.3,0.2,0.6,0.2,1.1,0.2
		c0.7,0,1.3-0.2,1.8-0.6c0.5-0.4,0.9-0.9,1.1-1.6H567.4z"/>
	<path class="st7" d="M568.8,454.2h1.4l0.5-2.4h0.6l-0.5,2.4h1.6l-0.1,0.5h-1.6l-1.2,5.4c0,0,0,0.1,0,0.1c0,0.1,0,0.1,0,0.2
		c0,0.1,0,0.1,0,0.2c0,0.1,0,0.1,0,0.2c0,0.2,0.1,0.4,0.2,0.5c0.1,0.1,0.4,0.2,0.7,0.2c0.3,0,0.6,0,0.9,0l-0.1,0.5
		c-0.1,0-0.2,0-0.4,0s-0.3,0-0.5,0c-0.5,0-0.8-0.1-1-0.3c-0.2-0.2-0.3-0.5-0.3-0.9c0-0.1,0-0.2,0-0.4c0-0.1,0.1-0.3,0.1-0.4l1.2-5.3
		h-1.5L568.8,454.2z"/>
	<path class="st7" d="M573.7,454.2h0.6l-1.6,7.7h-0.6L573.7,454.2z M574.4,451.2h0.6l-0.3,1.5H574L574.4,451.2z"/>
	<path class="st7" d="M579.1,454c1,0,1.7,0.3,2.2,0.8s0.8,1.3,0.8,2.2c0,0.6-0.1,1.2-0.3,1.8c-0.2,0.6-0.4,1.1-0.8,1.6
		c-0.3,0.5-0.8,0.9-1.3,1.2c-0.5,0.3-1.1,0.5-1.8,0.5c-0.5,0-1-0.1-1.4-0.2c-0.4-0.2-0.7-0.4-1-0.7c-0.3-0.3-0.4-0.6-0.6-1
		c-0.1-0.4-0.2-0.8-0.2-1.3c0-0.6,0.1-1.2,0.3-1.7c0.2-0.6,0.5-1.1,0.8-1.6s0.8-0.8,1.3-1.1C577.9,454.2,578.5,454,579.1,454z
		 M579.2,454.5c-0.6,0-1.1,0.1-1.6,0.4c-0.5,0.3-0.8,0.6-1.2,1s-0.6,0.9-0.7,1.4c-0.2,0.5-0.2,1-0.2,1.5c0,0.4,0,0.8,0.1,1.1
		s0.2,0.6,0.5,0.9c0.2,0.3,0.5,0.5,0.8,0.6c0.3,0.1,0.7,0.2,1.1,0.2c0.6,0,1.1-0.1,1.6-0.4s0.8-0.6,1.1-1.1c0.3-0.4,0.5-0.9,0.7-1.5
		c0.1-0.5,0.2-1.1,0.2-1.6c0-0.8-0.2-1.4-0.6-1.8C580.6,454.8,580,454.5,579.2,454.5z"/>
	<path class="st7" d="M584.3,454.2h0.6l-0.4,1.7h0c0.3-0.6,0.8-1,1.3-1.4c0.5-0.3,1.1-0.5,1.8-0.5c0.3,0,0.6,0,0.8,0.1
		c0.3,0.1,0.5,0.2,0.7,0.4c0.2,0.2,0.4,0.4,0.5,0.7c0.1,0.3,0.2,0.6,0.2,0.9c0,0.1,0,0.2,0,0.3c0,0.1,0,0.3-0.1,0.4
		c0,0.1-0.1,0.3-0.1,0.4c0,0.1,0,0.2-0.1,0.3l-0.9,4.2h-0.6l0.9-4.2c0-0.1,0-0.2,0.1-0.3s0.1-0.3,0.1-0.4s0-0.3,0.1-0.4
		c0-0.2,0-0.3,0-0.4c0-0.5-0.2-0.9-0.5-1.2c-0.3-0.3-0.8-0.5-1.3-0.5c-0.5,0-0.9,0.1-1.3,0.3c-0.4,0.2-0.7,0.5-1,0.9
		c-0.3,0.4-0.5,0.8-0.7,1.2c-0.2,0.4-0.3,0.9-0.4,1.3l-0.8,3.6h-0.6L584.3,454.2z"/>
	<path class="st7" d="M603.3,451.2l-2.3,10.7h-0.6l0.4-1.7l0,0c-0.3,0.6-0.7,1.1-1.2,1.4c-0.5,0.3-1.1,0.5-1.8,0.5
		c-0.5,0-0.9-0.1-1.3-0.2c-0.4-0.2-0.7-0.4-0.9-0.7s-0.4-0.6-0.5-1c-0.1-0.4-0.2-0.8-0.2-1.2c0-0.6,0.1-1.2,0.3-1.8
		c0.2-0.6,0.4-1.1,0.8-1.6s0.8-0.9,1.3-1.2c0.5-0.3,1.1-0.5,1.8-0.5c0.7,0,1.2,0.2,1.7,0.5c0.5,0.4,0.7,0.9,0.8,1.5h0l1-4.9H603.3z
		 M598,461.6c0.5,0,1-0.2,1.5-0.5c0.4-0.3,0.8-0.7,1.1-1.2c0.3-0.5,0.5-1,0.6-1.6c0.1-0.6,0.2-1.1,0.2-1.6c0-0.3,0-0.6-0.1-0.8
		c-0.1-0.3-0.2-0.5-0.4-0.7c-0.2-0.2-0.4-0.4-0.7-0.5c-0.3-0.1-0.6-0.2-0.9-0.2c-0.6,0-1.1,0.1-1.6,0.4s-0.8,0.6-1.2,1.1
		c-0.3,0.4-0.6,0.9-0.7,1.4c-0.2,0.5-0.2,1-0.2,1.5c0,0.3,0,0.7,0.1,1c0.1,0.3,0.2,0.6,0.4,0.8c0.2,0.2,0.4,0.4,0.8,0.6
		S597.5,461.6,598,461.6z"/>
	<path class="st7" d="M603.9,458.1c0,0.1,0,0.3-0.1,0.4c0,0.1,0,0.3,0,0.4c0,0.4,0.1,0.7,0.2,1c0.1,0.3,0.3,0.6,0.5,0.8
		c0.2,0.2,0.5,0.4,0.8,0.6c0.3,0.1,0.7,0.2,1,0.2c0.4,0,0.7-0.1,1-0.2c0.3-0.1,0.6-0.3,0.9-0.5s0.5-0.4,0.6-0.7
		c0.2-0.3,0.3-0.6,0.4-0.9h0.6c-0.1,0.4-0.3,0.8-0.5,1.1c-0.2,0.3-0.5,0.6-0.8,0.9s-0.6,0.4-1,0.6c-0.4,0.1-0.8,0.2-1.3,0.2
		c-0.5,0-0.9-0.1-1.3-0.2c-0.4-0.2-0.7-0.4-0.9-0.7c-0.2-0.3-0.4-0.6-0.6-1c-0.1-0.4-0.2-0.8-0.2-1.2c0-0.7,0.1-1.4,0.3-2
		c0.2-0.6,0.5-1.1,0.8-1.6c0.3-0.4,0.8-0.8,1.3-1.1c0.5-0.3,1.1-0.4,1.7-0.4c0.4,0,0.8,0.1,1.2,0.2c0.4,0.2,0.6,0.4,0.9,0.6
		c0.2,0.3,0.4,0.6,0.5,0.9c0.1,0.4,0.2,0.8,0.2,1.2c0,0.2,0,0.4,0,0.6c0,0.2,0,0.4-0.1,0.6H603.9z M609.6,457.6c0-0.1,0-0.2,0.1-0.3
		c0-0.1,0-0.2,0-0.3c0-0.3,0-0.6-0.1-0.9c-0.1-0.3-0.2-0.6-0.4-0.8s-0.4-0.4-0.7-0.5s-0.7-0.2-1-0.2c-0.5,0-0.9,0.1-1.2,0.3
		c-0.4,0.2-0.7,0.4-1,0.7c-0.3,0.3-0.5,0.6-0.7,1c-0.2,0.4-0.3,0.8-0.4,1.2H609.6z"/>
	<path class="st7" d="M611.4,459.3c0,0.1,0,0.1,0,0.2c0,0.1,0,0.1,0,0.2c0,0.7,0.2,1.2,0.7,1.5c0.5,0.3,1.1,0.4,1.9,0.4
		c0.2,0,0.4,0,0.7-0.1c0.2-0.1,0.5-0.2,0.7-0.3c0.2-0.1,0.4-0.3,0.5-0.5c0.1-0.2,0.2-0.4,0.2-0.7c0-0.4-0.1-0.7-0.3-0.9
		c-0.2-0.2-0.5-0.4-0.8-0.5c-0.3-0.1-0.7-0.3-1-0.4s-0.7-0.2-1-0.4c-0.3-0.2-0.6-0.4-0.8-0.6s-0.3-0.6-0.3-1c0-0.4,0.1-0.7,0.2-0.9
		c0.2-0.3,0.4-0.5,0.6-0.7c0.3-0.2,0.6-0.3,0.9-0.4s0.7-0.1,1-0.1c0.4,0,0.7,0,1,0.1c0.3,0.1,0.6,0.2,0.8,0.4
		c0.2,0.2,0.4,0.4,0.6,0.6s0.2,0.5,0.2,0.8c0,0.1,0,0.2,0,0.3c0,0.1,0,0.2,0,0.3h-0.6c0-0.1,0-0.2,0-0.3s0-0.2,0-0.2
		c0-0.2-0.1-0.5-0.2-0.7c-0.1-0.2-0.3-0.3-0.5-0.5c-0.2-0.1-0.4-0.2-0.7-0.3c-0.3-0.1-0.5-0.1-0.8-0.1c-0.2,0-0.5,0-0.7,0.1
		c-0.2,0-0.5,0.1-0.7,0.3c-0.2,0.1-0.4,0.3-0.5,0.5c-0.1,0.2-0.2,0.4-0.2,0.7c0,0.3,0.1,0.5,0.2,0.6c0.1,0.2,0.3,0.3,0.5,0.5
		s0.4,0.2,0.7,0.3c0.3,0.1,0.5,0.2,0.8,0.3c0.3,0.1,0.5,0.2,0.8,0.3s0.5,0.2,0.7,0.4c0.2,0.2,0.4,0.3,0.5,0.6
		c0.1,0.2,0.2,0.5,0.2,0.8c0,0.4-0.1,0.7-0.2,1s-0.4,0.5-0.7,0.7s-0.6,0.3-0.9,0.4c-0.3,0.1-0.7,0.1-1,0.1c-0.4,0-0.8,0-1.2-0.1
		c-0.4-0.1-0.7-0.2-0.9-0.4s-0.5-0.4-0.6-0.7c-0.2-0.3-0.2-0.7-0.2-1.1v-0.2c0,0,0-0.1,0-0.1s0-0.1,0-0.1H611.4z"/>
	<path class="st7" d="M619.3,454.2h0.6l-1.6,7.7h-0.6L619.3,454.2z M619.9,451.2h0.6l-0.3,1.5h-0.6L619.9,451.2z"/>
	<path class="st7" d="M620.7,462.5c0,0.6,0.2,1.1,0.6,1.4s0.9,0.5,1.5,0.5c0.5,0,1-0.1,1.3-0.2c0.4-0.1,0.7-0.3,0.9-0.6
		s0.4-0.5,0.6-0.9c0.1-0.3,0.2-0.7,0.3-1.1l0.3-1.5h0c-0.3,0.5-0.7,0.9-1.1,1.2c-0.5,0.3-1,0.4-1.6,0.4c-0.5,0-0.9-0.1-1.3-0.2
		c-0.4-0.2-0.7-0.4-0.9-0.6c-0.2-0.3-0.4-0.6-0.5-1c-0.1-0.4-0.2-0.8-0.2-1.3c0-0.5,0.1-1.1,0.3-1.6s0.4-1,0.7-1.4
		c0.3-0.4,0.7-0.8,1.2-1c0.5-0.3,1-0.4,1.6-0.4c0.3,0,0.7,0.1,1,0.2c0.3,0.1,0.6,0.2,0.8,0.4c0.2,0.2,0.4,0.4,0.6,0.7
		s0.2,0.6,0.2,0.9h0l0.4-2h0.6l-1.6,7.3c-0.1,0.5-0.3,1-0.4,1.4c-0.2,0.4-0.4,0.8-0.7,1c-0.3,0.3-0.7,0.5-1.1,0.6
		c-0.4,0.1-1,0.2-1.6,0.2c-0.4,0-0.7-0.1-1-0.2c-0.3-0.1-0.6-0.3-0.8-0.5c-0.2-0.2-0.4-0.5-0.5-0.8c-0.1-0.3-0.2-0.6-0.2-1H620.7z
		 M624.5,454.5c-0.5,0-1,0.1-1.4,0.4c-0.4,0.2-0.7,0.5-1,0.9s-0.5,0.8-0.6,1.3c-0.1,0.5-0.2,0.9-0.2,1.4c0,0.8,0.2,1.5,0.6,2
		c0.4,0.5,1,0.7,1.8,0.7c0.5,0,1-0.1,1.4-0.4c0.4-0.3,0.7-0.6,1-1s0.5-0.9,0.6-1.3c0.1-0.5,0.2-1,0.2-1.4c0-0.5-0.1-0.9-0.2-1.2
		c-0.2-0.3-0.4-0.6-0.6-0.8c-0.2-0.2-0.5-0.3-0.8-0.4S624.7,454.5,624.5,454.5z"/>
	<path class="st7" d="M629.9,454.2h0.6l-0.4,1.7h0c0.3-0.6,0.8-1,1.3-1.4c0.5-0.3,1.1-0.5,1.8-0.5c0.3,0,0.6,0,0.8,0.1
		c0.3,0.1,0.5,0.2,0.7,0.4c0.2,0.2,0.4,0.4,0.5,0.7c0.1,0.3,0.2,0.6,0.2,0.9c0,0.1,0,0.2,0,0.3c0,0.1,0,0.3-0.1,0.4
		c0,0.1-0.1,0.3-0.1,0.4c0,0.1,0,0.2-0.1,0.3l-0.9,4.2h-0.6l0.9-4.2c0-0.1,0-0.2,0.1-0.3s0.1-0.3,0.1-0.4s0-0.3,0.1-0.4
		c0-0.2,0-0.3,0-0.4c0-0.5-0.2-0.9-0.5-1.2c-0.3-0.3-0.8-0.5-1.3-0.5c-0.5,0-0.9,0.1-1.3,0.3c-0.4,0.2-0.7,0.5-1,0.9
		c-0.3,0.4-0.5,0.8-0.7,1.2c-0.2,0.4-0.3,0.9-0.4,1.3l-0.8,3.6h-0.6L629.9,454.2z"/>
</g>
</svg>
