<svg width="24" height="24" viewBox="0 0 24 24" fill="none" xmlns="http://www.w3.org/2000/svg">
<g clip-path="url(#clip0)">
<g clip-path="url(#clip1)">
<path d="M18.5 2H4.5C3.57174 2 2.6815 2.36524 2.02513 3.01536C1.36875 3.66549 1 4.54725 1 5.46667L1 19.3333C1 20.2528 1.36875 21.1345 2.02513 21.7846C2.6815 22.4348 3.57174 22.8 4.5 22.8H18.5C19.4283 22.8 20.3185 22.4348 20.9749 21.7846C21.6313 21.1345 22 20.2528 22 19.3333V5.46667C22 4.54725 21.6313 3.66549 20.9749 3.01536C20.3185 2.36524 19.4283 2 18.5 2V2ZM20.25 19.3333C20.25 19.793 20.0656 20.2339 19.7374 20.559C19.4092 20.884 18.9641 21.0667 18.5 21.0667H4.5C4.03587 21.0667 3.59075 20.884 3.26256 20.559C2.93437 20.2339 2.75 19.793 2.75 19.3333V5.46667C2.75 5.00696 2.93437 4.56608 3.26256 4.24101C3.59075 3.91595 4.03587 3.73333 4.5 3.73333H18.5C18.9641 3.73333 19.4092 3.91595 19.7374 4.24101C20.0656 4.56608 20.25 5.00696 20.25 5.46667V19.3333Z" fill="#B0B0B0"/>
<path d="M11.5 7.2C10.4616 7.2 9.44662 7.50497 8.58326 8.07636C7.7199 8.64774 7.04699 9.45987 6.64963 10.41C6.25227 11.3602 6.14831 12.4058 6.35088 13.4145C6.55345 14.4232 7.05347 15.3497 7.78769 16.077C8.52192 16.8042 9.45738 17.2994 10.4758 17.5001C11.4942 17.7007 12.5498 17.5977 13.5091 17.2042C14.4684 16.8106 15.2883 16.1441 15.8652 15.289C16.4421 14.4338 16.75 13.4285 16.75 12.4C16.75 11.0209 16.1969 9.69823 15.2123 8.72304C14.2277 7.74785 12.8924 7.2 11.5 7.2ZM11.5 15.8667C10.8078 15.8667 10.1311 15.6633 9.55551 15.2824C8.97993 14.9015 8.53133 14.3601 8.26642 13.7266C8.00152 13.0932 7.93221 12.3962 8.06725 11.7237C8.2023 11.0512 8.53564 10.4335 9.02513 9.94869C9.51461 9.46387 10.1383 9.1337 10.8172 8.99994C11.4961 8.86618 12.1999 8.93483 12.8394 9.19721C13.4789 9.4596 14.0256 9.90393 14.4101 10.474C14.7947 11.0441 15 11.7144 15 12.4C15 13.3194 14.6313 14.2012 13.9749 14.8513C13.3185 15.5014 12.4283 15.8667 11.5 15.8667Z" fill="#B0B0B0"/>
<path d="M17.1875 8.06667C17.9124 8.06667 18.5 7.48464 18.5 6.76667C18.5 6.0487 17.9124 5.46667 17.1875 5.46667C16.4626 5.46667 15.875 6.0487 15.875 6.76667C15.875 7.48464 16.4626 8.06667 17.1875 8.06667Z" fill="#B0B0B0"/>
</g>
</g>
<defs>
<clipPath id="clip0">
<rect width="24" height="24" fill="white"/>
</clipPath>
<clipPath id="clip1">
<rect width="21" height="26" fill="white" transform="translate(1 2)"/>
</clipPath>
</defs>
</svg>
