<?xml version="1.0" encoding="utf-8"?>
<!-- Generator: Adobe Illustrator 21.0.2, SVG Export Plug-In . SVG Version: 6.00 Build 0)  -->
<svg version="1.1" id="Layer_1" xmlns="http://www.w3.org/2000/svg" xmlns:xlink="http://www.w3.org/1999/xlink" x="0px" y="0px"
	 viewBox="0 0 502.2 282.9" style="enable-background:new 0 0 502.2 282.9;" xml:space="preserve">
<style type="text/css">
	.st0{clip-path:url(#SVGID_2_);}
	.st1{opacity:0.69;fill:none;stroke:#FFFFFF;stroke-width:0.4;stroke-miterlimit:10;enable-background:new    ;}
	.st2{opacity:0.87;fill:none;stroke:#F05F72;stroke-width:0.4;stroke-miterlimit:10;enable-background:new    ;}
	.st3{fill:none;stroke:#F05F72;stroke-miterlimit:10;}
</style>
<title>Asset 3</title>
<g>
	<defs>
		<rect id="SVGID_1_" x="89.8" y="59.8" width="322.6" height="163.3"/>
	</defs>
	<clipPath id="SVGID_2_">
		<use xlink:href="#SVGID_1_"  style="overflow:visible;"/>
	</clipPath>
	<g id="Layer_2" class="st0">
		<g id="Default">
			<polygon class="st1" points="135.8,188.6 154.9,216.2 170.3,147 			"/>
			<polygon class="st1" points="335.2,81.5 347.6,83.8 356.7,73.8 			"/>
			<polygon class="st1" points="372.4,66.4 370.9,87 405,62.8 			"/>
			<polygon class="st1" points="296.1,81.6 301.4,96.9 342.8,89 			"/>
			<polygon class="st1" points="366.3,72 323.4,125.1 363.4,105.4 			"/>
			<polygon class="st1" points="164.3,206.6 200.3,184.5 186.8,172.8 			"/>
			<polygon class="st1" points="187.1,158 168.8,188.2 179.6,138.5 			"/>
			<polygon class="st1" points="197.5,172.3 189.2,166 197,150.5 			"/>
			<polygon class="st1" points="204.5,126.7 217.5,124.4 207.1,107.6 194.9,128.1 			"/>
			<polygon class="st1" points="276.5,79.7 293.7,99.3 283.8,71.2 			"/>
			<polygon class="st1" points="224.6,179.6 239.5,197.4 242.2,164.2 			"/>
			<polygon class="st1" points="256.8,185.8 286.7,169.1 251.4,169.1 			"/>
			<polygon class="st1" points="280.9,141.8 273.6,118.4 250.8,155.8 			"/>
			<polygon class="st1" points="245.7,164.3 287.9,164.3 282.6,147.3 			"/>
			<polygon class="st1" points="326.7,154.1 303,124.2 299.8,141.7 			"/>
			<polygon class="st1" points="220.6,96.1 257.3,92.9 245.7,111.7 			"/>
			<polygon class="st1" points="204.7,92.1 238,113.6 218.3,113.6 			"/>
			<polygon class="st1" points="203,177.4 231,195.6 202.4,162.3 			"/>
			<polyline class="st1" points="216.5,170 220.4,130.9 220.4,130 189.1,134.9 216.6,170.1 			"/>
			<polygon class="st1" points="221.2,175.6 240.4,159 225.2,136.1 			"/>
			<polygon class="st1" points="249.6,113.6 296.3,113.6 268.9,83 			"/>
			<polygon class="st1" points="296.7,106.7 313.6,127.1 336.1,97.2 			"/>
			<polygon class="st1" points="280,118.7 298.7,118.7 291,155.3 			"/>
			<polygon class="st1" points="246.1,169.4 245.2,179.5 251.6,186.4 			"/>
			<polygon class="st1" points="148.8,219.3 136.5,201.1 96,219.5 			"/>
			<rect x="82.9" y="49" class="st2" width="336.3" height="189.2"/>
		</g>
	</g>
</g>
<rect class="st3" width="502.2" height="282.9"/>
</svg>
