<svg id="Layer_1" data-name="Layer 1" xmlns="http://www.w3.org/2000/svg" xmlns:xlink="http://www.w3.org/1999/xlink" viewBox="0 0 503.2 283.9"><defs><style>.cls-1,.cls-3,.cls-4,.cls-5{fill:none;}.cls-2{clip-path:url(#clip-path);}.cls-3{stroke:#fff;opacity:0.69;}.cls-3,.cls-4,.cls-5{stroke-miterlimit:10;}.cls-3,.cls-4{stroke-width:0.4px;isolation:isolate;}.cls-4,.cls-5{stroke:#f05f72;}.cls-4{opacity:0.87;}</style><clipPath id="clip-path" transform="translate(0.5 0.5)"><rect class="cls-1" x="109.41" y="67.83" width="283.38" height="143.47"/></clipPath></defs><title>landingbackn2</title><g class="cls-2"><g id="Layer_2" data-name="Layer 2"><g id="Default"><polygon class="cls-3" points="150.34 181.47 167.14 205.75 180.64 144.93 150.34 181.47"/><polygon class="cls-3" points="325.51 87.4 336.36 89.47 344.37 80.62 325.51 87.4"/><polygon class="cls-3" points="358.16 74.14 356.81 92.23 386.75 70.96 358.16 74.14"/><polygon class="cls-3" points="291.09 87.52 295.8 100.96 332.11 94 291.09 87.52"/><polygon class="cls-3" points="352.74 79.09 315.14 125.71 350.2 108.38 352.74 79.09"/><polygon class="cls-3" points="175.33 197.32 206.98 177.87 195.14 167.56 175.33 197.32"/><polygon class="cls-3" points="195.37 154.59 179.34 181.12 188.83 137.44 195.37 154.59"/><polygon class="cls-3" points="204.51 167.15 197.26 161.66 204.09 147.99 204.51 167.15"/><polygon class="cls-3" points="210.64 127.13 222.13 125.12 213 110.33 202.27 128.37 210.64 127.13"/><polygon class="cls-3" points="273.94 85.81 289.03 103.08 280.36 78.38 273.94 85.81"/><polygon class="cls-3" points="228.32 173.57 241.4 189.25 243.76 160.01 228.32 173.57"/><polygon class="cls-3" points="256.61 178.99 282.9 164.32 251.84 164.32 256.61 178.99"/><polygon class="cls-3" points="277.77 140.39 271.35 119.82 251.36 152.65 277.77 140.39"/><polygon class="cls-3" points="246.83 160.13 283.96 160.13 279.3 145.16 246.83 160.13"/><polygon class="cls-3" points="318.02 151.17 297.22 124.95 294.39 140.27 318.02 151.17"/><polygon class="cls-3" points="224.78 100.19 257.02 97.42 246.83 113.92 224.78 100.19"/><polygon class="cls-3" points="210.81 96.71 240.11 115.58 222.78 115.58 210.81 96.71"/><polygon class="cls-3" points="209.34 171.63 233.92 187.6 208.81 158.37 209.34 171.63"/><polyline class="cls-3" points="221.19 165.14 224.66 130.78 224.66 130.01 197.14 134.32 221.31 165.26"/><polygon class="cls-3" points="225.31 170.03 242.17 155.48 228.85 135.38 225.31 170.03"/><polygon class="cls-3" points="250.24 115.58 291.32 115.58 267.22 88.76 250.24 115.58"/><polygon class="cls-3" points="291.68 109.56 306.47 127.42 326.28 101.19 291.68 109.56"/><polygon class="cls-3" points="276.94 120.11 293.39 120.11 286.67 152.24 276.94 120.11"/><polygon class="cls-3" points="247.24 164.61 246.41 173.45 252.07 179.52 247.24 164.61"/><polygon class="cls-3" points="161.78 208.4 150.93 192.49 115.39 208.58 161.78 208.4"/><rect class="cls-4" x="103.9" y="58.88" width="295.4" height="166.15"/></g></g></g><rect class="cls-5" x="0.5" y="0.5" width="502.2" height="282.9"/></svg>