<svg xmlns="http://www.w3.org/2000/svg" viewBox="0 0 502.2 282.92"><defs><style>.cls-1,.cls-2{fill:none;stroke-miterlimit:10;}.cls-1{stroke:#f05f72;opacity:0.87;}.cls-2{stroke:#fff;stroke-width:0.75px;opacity:0.54;}.cls-3{fill:#fff;}</style></defs><title>Asset 5</title><g id="Layer_2" data-name="Layer 2"><g id="Default"><rect class="cls-1" x="0.5" y="0.5" width="501.2" height="281.92"/><polygon class="cls-2" points="74.48 213.05 102.92 254.25 125.87 151.06 74.48 213.05"/><polygon class="cls-2" points="371.68 53.49 390.06 57.01 403.64 41.99 371.68 53.49"/><polygon class="cls-2" points="427.06 31 424.7 61.67 475.55 25.65 427.06 31"/><polygon class="cls-2" points="313.21 53.69 321.27 76.54 382.82 64.71 313.21 53.69"/><polygon class="cls-2" points="417.82 39.45 353.99 118.5 413.53 89.09 417.82 39.45"/><polygon class="cls-2" points="116.87 240 170.5 206.97 150.43 189.48 116.87 240"/><polygon class="cls-2" points="150.82 167.48 123.61 212.47 139.77 138.39 150.82 167.48"/><polygon class="cls-2" points="166.31 188.81 154.08 179.48 165.66 156.3 166.31 188.81"/><polygon class="cls-2" points="176.73 120.88 196.22 117.48 180.75 92.42 162.5 123.05 176.73 120.88"/><polygon class="cls-2" points="284.11 50.84 309.8 80.11 295.02 38.2 284.11 50.84"/><polygon class="cls-2" points="206.76 199.71 228.92 226.31 232.93 176.68 206.76 199.71"/><polygon class="cls-2" points="254.7 208.87 299.36 184.03 246.66 184.03 254.7 208.87"/><polygon class="cls-2" points="290.68 143.38 279.8 108.46 245.87 164.22 290.68 143.38"/><polygon class="cls-2" points="238.15 176.92 301.13 176.92 293.21 151.51 238.15 176.92"/><polygon class="cls-2" points="358.92 161.75 323.67 117.14 318.86 143.22 358.92 161.75"/><polygon class="cls-2" points="200.7 75.21 255.41 70.46 238.14 98.49 200.7 75.21"/><polygon class="cls-2" points="177.02 69.24 226.75 101.26 197.36 101.26 177.02 69.24"/><polygon class="cls-2" points="174.6 196.35 216.21 223.52 173.62 173.93 174.6 196.35"/><polyline class="cls-2" points="194.69 185.42 200.57 127.11 200.57 125.84 153.83 133.1 194.81 185.58"/><polygon class="cls-2" points="201.68 193.74 230.27 169 207.63 134.94 201.68 193.74"/><polygon class="cls-2" points="243.98 101.26 313.62 101.26 272.76 55.84 243.98 101.26"/><path class="cls-3" d="M227.55,129.13a13.67,13.67,0,0,1-5.71,10.74l14,23.69,15.78-26.67L236,110.28H204.34l2.29,3.87q.93-.07,1.88-.07C219,114.08,227.55,120.82,227.55,129.13Z"/><polygon class="cls-3" points="246.01 110.28 256.66 128.39 267.38 110.28 246.01 110.28"/><polygon class="cls-2" points="314.21 91.11 339.31 121.37 372.96 76.87 314.21 91.11"/><polygon class="cls-2" points="289.24 109.02 317.16 109.02 305.72 163.47 289.24 109.02"/><polygon class="cls-2" points="238.84 184.46 237.46 199.44 247.05 209.83 238.84 184.46"/><polygon class="cls-2" points="93.8 258.84 75.46 231.78 15.12 259.09 93.8 258.84"/></g></g></svg>