<svg width="46" height="46" viewBox="0 0 46 46" fill="none" xmlns="http://www.w3.org/2000/svg">
<path d="M32.7815 17.1868L31.986 16.3914L24.6178 23.7596C23.6967 24.6807 22.1477 24.6807 21.2267 23.7596L13.8584 16.4332L13.063 17.2287L18.5473 22.713L13.063 28.1973L13.8584 28.9928L19.3428 23.5084L20.4313 24.5969C21.1011 25.2668 21.9803 25.6436 22.9013 25.6436C23.8223 25.6436 24.7015 25.2668 25.3713 24.5969L26.4598 23.5084L31.9442 28.9928L32.7396 28.1973L27.2553 22.713L32.7815 17.1868Z" fill="#DBDBDB"/>
<path d="M31.2326 30.4164H14.6958C13.7329 30.4164 12.9375 29.621 12.9375 28.6581V16.8521C12.9375 15.8892 13.7329 15.0938 14.6958 15.0938H31.2326C32.1955 15.0938 32.9909 15.8892 32.9909 16.8521V28.6581C32.9909 29.621 32.1955 30.4164 31.2326 30.4164ZM14.654 16.2241C14.319 16.2241 14.0679 16.4753 14.0679 16.8102V28.6162C14.0679 28.9511 14.319 29.2023 14.654 29.2023H31.1907C31.5256 29.2023 31.7768 28.9511 31.7768 28.6162V16.8102C31.7768 16.4753 31.5256 16.2241 31.1907 16.2241H14.654Z" fill="#DBDBDB"/>
</svg>
